<?xml version="1.0" encoding="UTF-8"?>
<svg width="422px" height="246px" viewBox="0 0 422 246" version="1.1" xmlns="http://www.w3.org/2000/svg" xmlns:xlink="http://www.w3.org/1999/xlink">
    <title>noun-signature-1745297</title>
    <g id="Page-1" stroke="none" stroke-width="1" fill="none" fill-rule="evenodd">
        <g id="noun-signature-1745297" fill="#000000" fill-rule="nonzero">
            <path d="M161.72,99.48 C203.72,80.441 242.919,56.921 277.08,24.441 C286.0409,15.4801 278.7597,0.921 267.002,0.363 C239.002,-0.7581 217.721,16.601 197.002,32.843 C179.08,46.284 162.283,60.843 145.482,76.523 C102.361,95.562 55.88,109.003 10.522,121.882 C-6.837,126.9211 0.444,153.804 17.8032,148.761 C45.8032,140.9212 73.8032,132.523 101.2442,122.999 C74.3652,154.358 50.8462,188.519 30.6852,224.919 C21.7243,240.599 45.8062,254.599 54.7632,238.919 C78.8412,195.798 107.9622,155.478 142.1222,119.079 C148.2824,112.3563 155.0012,105.638 161.7202,99.477 L161.72,99.48 Z" id="Path"></path>
            <path d="M408.12,105.64 C393.561,107.3197 374.518,112.3588 358.839,111.8002 C358.839,110.1205 358.28041,108.4408 357.7179,106.1986 C355.4796,99.4798 348.1984,93.8786 340.3589,96.6791 C335.8784,98.3588 303.3979,111.8001 300.5969,106.7571 C297.2375,100.5969 287.7179,97.2376 281.5579,101.718 C264.7569,113.48 248.5189,119.64 229.4799,121.878 C231.1596,118.5186 232.8393,114.5968 235.0815,111.237 C241.2417,101.7175 230.601,86.038 219.4015,90.518 C193.0815,100.596 167.8815,112.358 143.2415,126.358 C127.5615,135.3189 141.5618,159.397 157.2415,150.436 C170.6825,143.1548 184.1205,135.877 198.1205,129.717 C198.1205,130.8381 197.56191,131.3967 197.56191,132.5178 C196.44081,141.4787 200.92131,149.8768 211.00291,150.4398 C238.44391,151.5609 263.64391,145.4007 286.60491,131.9598 C299.48391,140.3582 317.40591,134.7606 333.64391,129.159 C335.32361,133.6395 338.68301,137.5574 343.16341,138.6785 C363.88241,142.0379 387.40141,136.4402 408.12441,134.198 C425.47941,131.9597 426.03841,103.96 408.120504,105.639 L408.12,105.64 Z" id="Path"></path>
        </g>
    </g>
</svg>