<svg xmlns="http://www.w3.org/2000/svg" width="539" height="651" viewBox="0 0 539 651" version="1.1"><path d="M 238.498 55.080 C 221.449 65.024, 202.325 76.227, 196 79.974 C 189.675 83.722, 163.800 98.915, 138.500 113.736 C 73.431 151.855, 60.987 159.389, 61.792 160.180 C 62.682 161.055, 76.451 169.063, 119.500 193.742 C 138.200 204.463, 157.100 215.396, 161.500 218.039 C 165.900 220.681, 188.400 233.614, 211.500 246.778 C 234.600 259.943, 257.287 272.959, 261.916 275.704 L 270.332 280.694 320.416 251.960 C 418.203 195.858, 473.381 163.934, 476.361 161.737 C 478.062 160.483, 476.983 159.626, 463.861 151.809 C 434.258 134.175, 394.749 110.811, 372.500 97.782 C 359.850 90.375, 347.250 82.950, 344.500 81.284 C 341.750 79.617, 333.200 74.430, 325.500 69.756 C 317.800 65.082, 303.850 56.768, 294.500 51.279 C 285.150 45.790, 275.925 40.334, 274 39.154 C 272.075 37.973, 270.274 37.006, 269.998 37.004 C 269.722 37.002, 255.547 45.136, 238.498 55.080 M 260.500 80.143 C 255.550 82.939, 246.325 88.276, 240 92.002 C 208.982 110.274, 175.495 129.838, 157 140.492 C 118.799 162.498, 121.369 158.443, 139.272 168.463 C 147.097 172.842, 175.100 188.780, 201.500 203.881 C 227.900 218.981, 254.096 233.960, 259.714 237.168 C 271.956 244.159, 269.029 244.166, 281.277 237.118 C 286.900 233.883, 300.500 226.180, 311.500 220.001 C 322.500 213.822, 338.700 204.601, 347.500 199.511 C 356.300 194.420, 374.750 183.856, 388.500 176.034 C 402.250 168.212, 413.871 161.461, 414.324 161.033 C 415.161 160.240, 396.816 149.073, 351 122.488 C 336.975 114.350, 312.998 100.336, 297.718 91.346 C 282.438 82.356, 269.838 75.013, 269.718 75.029 C 269.598 75.045, 265.450 77.347, 260.500 80.143 M 30.247 324.488 L 30.500 469.142 56 484.214 C 70.025 492.503, 103.550 512.336, 130.500 528.288 C 255.219 602.107, 248.212 598, 249.434 598 C 249.745 598, 249.995 532.862, 249.989 453.250 L 249.978 308.500 210.239 285.345 C 188.382 272.610, 159.475 255.789, 146 247.965 C 105.007 224.164, 45.039 188.980, 33.247 181.811 L 29.993 179.833 30.247 324.488 M 69 310.727 L 69 373.668 85.750 383.519 C 94.963 388.938, 110.375 397.929, 120 403.501 C 129.625 409.072, 146.613 418.990, 157.750 425.541 L 178 437.451 178 455.725 C 178 465.776, 177.624 474, 177.165 474 C 176.304 474, 135.920 450.553, 98 428.038 C 77.019 415.580, 70.668 412, 69.550 412 C 69.247 412, 69 420.978, 69 431.952 L 69 451.904 73.250 454.794 C 75.588 456.384, 88.750 464.351, 102.500 472.499 C 116.250 480.647, 145.857 498.268, 168.292 511.657 C 190.728 525.045, 209.516 536, 210.042 536 C 210.642 536, 211 513.029, 211 474.514 L 211 413.028 207.250 410.592 C 205.188 409.252, 196.300 404.003, 187.500 398.928 C 156.734 381.185, 104.489 350.966, 103.228 350.184 C 102.254 349.580, 102.020 344.809, 102.228 329.771 L 102.500 310.146 133.500 328.182 C 181.320 356.005, 209.317 372, 210.198 372 C 210.639 372, 211 362.415, 211 350.699 L 211 329.399 195.250 320.293 C 186.588 315.285, 164.875 302.760, 147 292.459 C 129.125 282.159, 104.952 268.158, 93.283 261.347 C 81.613 254.535, 71.376 248.698, 70.533 248.374 C 69.166 247.850, 69 254.593, 69 310.727 M 430.140 261 C 423.902 263.244, 416.206 267.675, 363.500 299.366 L 324.500 322.816 324.245 429.408 C 324.105 488.033, 324.157 536, 324.359 536 C 324.561 536, 337.051 528.753, 352.113 519.895 C 367.176 511.037, 385.350 500.384, 392.500 496.222 C 427.952 475.583, 432.986 472.194, 442.509 462.557 C 459.316 445.546, 469.213 427.389, 473.703 405.326 C 476.254 392.794, 476.223 299.165, 473.665 289.275 C 467.454 265.269, 449.927 253.882, 430.140 261 M 414.500 309.941 C 412.300 310.931, 399.557 318.296, 386.182 326.309 C 372.808 334.322, 361.442 341.019, 360.925 341.192 C 360.348 341.384, 360.085 367.608, 360.243 409.155 L 360.500 476.806 381 464.648 C 438.583 430.496, 438.260 431.075, 437.791 362.893 C 437.511 322.156, 437.418 320.344, 435.413 316.500 C 431.238 308.498, 423.265 305.998, 414.500 309.941" stroke="none" fill="#050505" fill-rule="evenodd"/><path d="M 248.500 11.662 C 238.600 17.447, 213.625 31.979, 193 43.955 C 172.375 55.931, 140.425 74.491, 122 85.200 C 83.615 107.509, 38.565 133.637, 16 146.679 L 0.500 155.637 0.500 323.898 L 0.500 492.159 14.500 500.410 C 22.200 504.949, 44.250 518.016, 63.500 529.448 C 82.750 540.879, 118.525 562.040, 143 576.470 C 167.475 590.901, 196.050 607.769, 206.500 613.954 C 216.950 620.140, 235.476 631.037, 247.669 638.170 L 269.838 651.140 281.169 644.416 C 287.401 640.718, 301.725 632.205, 313 625.498 C 324.275 618.791, 344.750 606.639, 358.500 598.494 C 383.158 583.886, 397.671 575.277, 434 553.710 C 486.051 522.809, 524.921 499.950, 531 496.666 C 534.025 495.032, 537.288 493.019, 538.250 492.192 C 539.904 490.772, 539.996 481.503, 539.921 322.595 C 539.878 230.143, 539.632 155.013, 539.374 155.641 C 539.091 156.331, 532.111 152.815, 521.703 146.741 C 495.044 131.181, 478.733 121.644, 450 104.814 C 391.843 70.749, 376.556 61.777, 354 48.473 C 260.840 -6.475, 272.548 -2.390, 248.500 11.662 M 238.498 55.080 C 221.449 65.024, 202.325 76.227, 196 79.974 C 189.675 83.722, 163.800 98.915, 138.500 113.736 C 73.431 151.855, 60.987 159.389, 61.792 160.180 C 62.682 161.055, 76.451 169.063, 119.500 193.742 C 138.200 204.463, 157.100 215.396, 161.500 218.039 C 165.900 220.681, 188.400 233.614, 211.500 246.778 C 234.600 259.943, 257.287 272.959, 261.916 275.704 L 270.332 280.694 320.416 251.960 C 418.203 195.858, 473.381 163.934, 476.361 161.737 C 478.062 160.483, 476.983 159.626, 463.861 151.809 C 434.258 134.175, 394.749 110.811, 372.500 97.782 C 359.850 90.375, 347.250 82.950, 344.500 81.284 C 341.750 79.617, 333.200 74.430, 325.500 69.756 C 317.800 65.082, 303.850 56.768, 294.500 51.279 C 285.150 45.790, 275.925 40.334, 274 39.154 C 272.075 37.973, 270.274 37.006, 269.998 37.004 C 269.722 37.002, 255.547 45.136, 238.498 55.080 M 260.500 80.143 C 255.550 82.939, 246.325 88.276, 240 92.002 C 208.982 110.274, 175.495 129.838, 157 140.492 C 118.799 162.498, 121.369 158.443, 139.272 168.463 C 147.097 172.842, 175.100 188.780, 201.500 203.881 C 227.900 218.981, 254.096 233.960, 259.714 237.168 C 271.956 244.159, 269.029 244.166, 281.277 237.118 C 286.900 233.883, 300.500 226.180, 311.500 220.001 C 322.500 213.822, 338.700 204.601, 347.500 199.511 C 356.300 194.420, 374.750 183.856, 388.500 176.034 C 402.250 168.212, 413.871 161.461, 414.324 161.033 C 415.161 160.240, 396.816 149.073, 351 122.488 C 336.975 114.350, 312.998 100.336, 297.718 91.346 C 282.438 82.356, 269.838 75.013, 269.718 75.029 C 269.598 75.045, 265.450 77.347, 260.500 80.143 M 0.488 324 C 0.488 416.675, 0.606 454.587, 0.750 408.250 C 0.894 361.912, 0.894 286.087, 0.750 239.750 C 0.606 193.412, 0.488 231.325, 0.488 324 M 30.247 324.488 L 30.500 469.142 56 484.214 C 70.025 492.503, 103.550 512.336, 130.500 528.288 C 255.219 602.107, 248.212 598, 249.434 598 C 249.745 598, 249.995 532.862, 249.989 453.250 L 249.978 308.500 210.239 285.345 C 188.382 272.610, 159.475 255.789, 146 247.965 C 105.007 224.164, 45.039 188.980, 33.247 181.811 L 29.993 179.833 30.247 324.488 M 69 310.727 L 69 373.668 85.750 383.519 C 94.963 388.938, 110.375 397.929, 120 403.501 C 129.625 409.072, 146.613 418.990, 157.750 425.541 L 178 437.451 178 455.725 C 178 465.776, 177.624 474, 177.165 474 C 176.304 474, 135.920 450.553, 98 428.038 C 77.019 415.580, 70.668 412, 69.550 412 C 69.247 412, 69 420.978, 69 431.952 L 69 451.904 73.250 454.794 C 75.588 456.384, 88.750 464.351, 102.500 472.499 C 116.250 480.647, 145.857 498.268, 168.292 511.657 C 190.728 525.045, 209.516 536, 210.042 536 C 210.642 536, 211 513.029, 211 474.514 L 211 413.028 207.250 410.592 C 205.188 409.252, 196.300 404.003, 187.500 398.928 C 156.734 381.185, 104.489 350.966, 103.228 350.184 C 102.254 349.580, 102.020 344.809, 102.228 329.771 L 102.500 310.146 133.500 328.182 C 181.320 356.005, 209.317 372, 210.198 372 C 210.639 372, 211 362.415, 211 350.699 L 211 329.399 195.250 320.293 C 186.588 315.285, 164.875 302.760, 147 292.459 C 129.125 282.159, 104.952 268.158, 93.283 261.347 C 81.613 254.535, 71.376 248.698, 70.533 248.374 C 69.166 247.850, 69 254.593, 69 310.727 M 430.140 261 C 423.902 263.244, 416.206 267.675, 363.500 299.366 L 324.500 322.816 324.245 429.408 C 324.105 488.033, 324.157 536, 324.359 536 C 324.561 536, 337.051 528.753, 352.113 519.895 C 367.176 511.037, 385.350 500.384, 392.500 496.222 C 427.952 475.583, 432.986 472.194, 442.509 462.557 C 459.316 445.546, 469.213 427.389, 473.703 405.326 C 476.254 392.794, 476.223 299.165, 473.665 289.275 C 467.454 265.269, 449.927 253.882, 430.140 261 M 414.500 309.941 C 412.300 310.931, 399.557 318.296, 386.182 326.309 C 372.808 334.322, 361.442 341.019, 360.925 341.192 C 360.348 341.384, 360.085 367.608, 360.243 409.155 L 360.500 476.806 381 464.648 C 438.583 430.496, 438.260 431.075, 437.791 362.893 C 437.511 322.156, 437.418 320.344, 435.413 316.500 C 431.238 308.498, 423.265 305.998, 414.500 309.941" stroke="none" fill="#f2ebe8" fill-rule="evenodd"/></svg>