<?xml version="1.0" standalone="no"?>
<!DOCTYPE svg PUBLIC "-//W3C//DTD SVG 20010904//EN"
 "http://www.w3.org/TR/2001/REC-SVG-20010904/DTD/svg10.dtd">
<svg version="1.0" xmlns="http://www.w3.org/2000/svg"
 width="581.000000pt" height="566.000000pt" viewBox="0 0 581.000000 566.000000"
 preserveAspectRatio="xMidYMid meet">

<g transform="translate(0.000000,566.000000) scale(0.100000,-0.100000)"
fill="#000000" stroke="none">
<path d="M0 2830 l0 -2830 2905 0 2905 0 0 2830 0 2830 -2905 0 -2905 0 0
-2830z m5241 1585 c1 -360 2 -700 2 -755 0 -55 -1 -766 -2 -1580 l-1 -1480
-2335 0 -2335 0 0 2235 0 2235 2335 0 2335 0 1 -655z"/>
<path d="M3035 4579 c-3 -8 -4 -795 -3 -1749 l3 -1735 655 0 655 0 68 23 c147
49 269 155 332 287 63 134 60 60 60 1445 0 1200 -1 1268 -18 1325 -60 195
-210 339 -406 390 -90 23 -1337 36 -1346 14z m1123 -578 c46 -23 67 -46 87
-94 13 -32 15 -163 15 -1080 l0 -1044 -23 -44 c-16 -29 -38 -52 -68 -69 l-44
-25 -245 3 c-212 3 -247 5 -257 20 -10 12 -13 263 -13 1177 0 639 3 1165 7
1168 3 4 118 7 255 7 224 0 252 -2 286 -19z"/>
<path d="M1400 4557 c-108 -32 -176 -72 -250 -147 -71 -71 -119 -155 -145
-255 -21 -84 -22 -1025 0 -1128 40 -190 204 -363 390 -411 43 -12 108 -16 235
-16 255 0 332 -27 385 -133 l25 -51 0 -321 0 -321 -29 -45 c-40 -64 -84 -83
-200 -87 -107 -5 -156 6 -201 44 -59 50 -64 71 -68 272 l-4 182 -274 0 -274 0
0 -278 c0 -325 9 -380 82 -502 69 -116 171 -196 308 -242 60 -20 90 -22 368
-26 352 -4 407 2 520 59 136 67 241 184 295 328 21 54 22 74 25 592 3 596 1
627 -60 749 -40 78 -150 194 -224 232 -92 49 -152 60 -389 67 -217 6 -221 6
-267 34 -31 18 -57 44 -75 75 l-28 47 -3 287 c-3 308 1 346 44 398 42 49 79
63 178 66 149 6 217 -20 256 -96 17 -34 20 -60 20 -190 l0 -150 275 0 275 0 0
254 c0 139 -4 278 -10 307 -27 144 -148 302 -281 366 -123 59 -154 63 -505 62
-300 0 -323 -1 -394 -22z"/>
</g>
</svg>
