<?xml version="1.0" encoding="us-ascii" standalone="no"?><svg xmlns="http://www.w3.org/2000/svg" xmlns:xlink="http://www.w3.org/1999/xlink" contentStyleType="text/css" height="247.9167px" preserveAspectRatio="none" style="width:573px;height:247px;" version="1.1" viewBox="0 0 573 247" width="573.9583px" zoomAndPan="magnify"><defs/><g><!--entity r1--><g id="elem_r1"><polygon fill="#6D6875" points="211.9792,17.7083,211.9792,17.9273,222.3958,17.2767,232.8125,17.9097,243.2292,18.1247,253.6458,16.9652,264.0625,17.6274,274.4792,17.2641,284.8958,17.3089,295.3125,17.6373,305.7292,16.9882,316.1458,18.285,326.5625,17.0518,336.9792,17.5023,347.3958,18.1583,357.8125,17.619,368.2292,17.7083,368.2382,17.7302,368.8142,17.9422,369.4314,18.2538,370.0287,18.5173,370.664,18.8725,371.1754,18.9287,371.3907,19.0179,371.6374,19.6082,371.7453,20.1411,372.0564,20.7581,372.377,21.3791,372.3958,21.875,371.6446,21.875,373.1026,33.2487,372.087,44.6224,372.9519,55.9961,371.8802,67.3698,372.3958,78.7435,372.3739,78.7344,372.3897,79.4313,371.892,79.9155,371.6974,80.5252,371.5282,81.1455,371.1754,81.6898,371.2308,81.8233,370.5857,81.9326,370.0351,82.2701,369.3316,82.2384,368.8562,82.7573,368.2292,82.9102,368.2292,83.4812,357.8125,83.3732,347.3958,83.5487,336.9792,82.4069,326.5625,82.2308,316.1458,82.2629,305.7292,82.8488,295.3125,82.7054,284.8958,83.62,274.4792,82.7282,264.0625,82.5528,253.6458,83.1479,243.2292,82.2155,232.8125,82.3694,222.3958,83.5861,211.9792,82.9102,212.0371,83.0499,211.4875,82.9017,210.7579,82.3188,210.2538,82.2803,209.7006,82.1232,209.0329,81.6898,208.8813,81.627,208.7581,81.0878,208.5851,80.528,208.5097,80.0086,208.0552,79.3322,207.8125,78.7435,208.2943,78.7435,207.2356,67.3698,207.107,55.9961,208.3371,44.6224,207.0657,33.2487,207.8125,21.875,207.9758,21.9426,208.1229,21.3132,208.2147,20.6609,208.4312,20.0602,208.936,19.5789,209.0329,18.9287,208.9931,18.8327,209.7008,18.8745,210.138,18.2633,210.8827,18.3946,211.4543,18.1078,211.9792,17.7083" style="stroke:#333333;stroke-width:2.0833333333333335;"/><text fill="#FFFFFF" font-family="Segoe Print" font-size="16.6667" font-weight="bold" lengthAdjust="spacing" textLength="126.0417" x="223.4375" y="48.8037">commonMain</text><text fill="#FFFFFF" font-family="Segoe Print" font-size="12.5" lengthAdjust="spacing" textLength="133.3333" x="223.4375" y="64.3372">expect class Installer</text></g><!--entity r2--><g id="elem_r2"><polygon fill="#B5838D" points="21.875,171.875,21.875,172.0939,32.5149,171.4434,43.1548,172.0763,53.7946,172.2913,64.4345,171.1319,75.0744,171.794,85.7143,171.4307,96.3542,171.4755,106.994,171.804,117.6339,171.1548,128.2738,172.4517,138.9137,171.2185,149.5536,171.669,160.1935,172.3249,170.8333,171.875,170.8219,171.8475,171.4317,172.141,172.0076,172.3529,172.6248,172.6645,173.2221,172.928,173.7796,173.0954,173.9675,173.1732,174.239,173.7738,174.4857,174.3642,174.5935,174.897,174.9046,175.514,175,176.0417,175.7315,176.0417,174.2488,187.4154,175.7068,198.7891,174.6911,210.1628,175.5561,221.5365,175,232.9102,174.8412,232.8444,174.7339,233.4903,174.7497,234.1872,174.2521,234.6714,174.0575,235.2812,173.7796,235.8564,173.8246,235.9651,173.2457,236.234,172.6006,236.3433,172.05,236.6808,171.3465,236.6491,170.8333,237.0768,170.8333,237.3731,160.1935,237.6479,149.5536,237.5399,138.9137,237.7154,128.2738,236.5736,117.6339,236.3975,106.994,236.4295,96.3542,237.0155,85.7143,236.8721,75.0744,237.7866,64.4345,236.8949,53.7946,236.7195,43.1548,237.3146,32.5149,236.3822,21.875,237.0768,21.806,236.9103,21.372,237.0409,20.7544,236.7284,20.2048,236.5802,19.4752,235.9973,18.9287,235.8564,19.0311,235.8988,18.874,235.3456,18.289,234.6152,18.1657,234.0759,17.9928,233.5162,17.7083,232.9102,18.3872,232.9102,17.704,221.5365,18.1902,210.1628,17.1315,198.7891,17.0029,187.4154,17.7083,176.0417,17.8699,176.1086,17.7224,175.3571,18.3598,174.9308,18.5069,174.3014,18.5987,173.649,18.9287,173.0954,18.8817,172.9819,19.5789,172.9985,20.0675,172.5112,20.7751,172.553,21.2123,171.9418,21.875,171.875" style="stroke:#333333;stroke-width:2.0833333333333335;"/><text fill="#FFFFFF" font-family="Segoe Print" font-size="16.6667" font-weight="bold" lengthAdjust="spacing" textLength="106.25" x="33.3333" y="202.9704">debianMain</text><text fill="#FFFFFF" font-family="Segoe Print" font-size="12.5" lengthAdjust="spacing" textLength="126.0417" x="33.3333" y="218.5038">actual class Installer</text></g><!--entity r3--><g id="elem_r3"><polygon fill="#B5838D" points="215.625,171.875,215.625,172.0939,226.2649,171.4434,236.9048,172.0763,247.5446,172.2913,258.1845,171.1319,268.8244,171.794,279.4643,171.4307,290.1042,171.4755,300.744,171.804,311.3839,171.1548,322.0238,172.4517,332.6637,171.2185,343.3036,171.669,353.9435,172.3249,364.5833,171.875,364.5719,171.8475,365.1817,172.141,365.7576,172.3529,366.3748,172.6645,366.9721,172.928,367.5296,173.0954,367.7175,173.1732,367.989,173.7738,368.2357,174.3642,368.3435,174.897,368.6546,175.514,368.75,176.0417,369.4815,176.0417,367.9988,187.4154,369.4568,198.7891,368.4411,210.1628,369.3061,221.5365,368.75,232.9102,368.5912,232.8444,368.4839,233.4903,368.4997,234.1872,368.0021,234.6714,367.8075,235.2812,367.5296,235.8564,367.5746,235.9651,366.9957,236.234,366.3506,236.3433,365.8,236.6808,365.0965,236.6491,364.5833,237.0768,364.5833,237.3731,353.9435,237.6479,343.3036,237.5399,332.6637,237.7154,322.0238,236.5736,311.3839,236.3975,300.744,236.4295,290.1042,237.0155,279.4643,236.8721,268.8244,237.7866,258.1845,236.8949,247.5446,236.7195,236.9048,237.3146,226.2649,236.3822,215.625,237.0768,215.556,236.9103,215.122,237.0409,214.5044,236.7284,213.9548,236.5802,213.2252,235.9973,212.6787,235.8564,212.7811,235.8988,212.624,235.3456,212.039,234.6152,211.9157,234.0759,211.7428,233.5162,211.4583,232.9102,212.1372,232.9102,211.454,221.5365,211.9402,210.1628,210.8815,198.7891,210.7529,187.4154,211.4583,176.0417,211.6199,176.1086,211.4724,175.3571,212.1098,174.9308,212.2569,174.3014,212.3487,173.649,212.6787,173.0954,212.6317,172.9819,213.3289,172.9985,213.8175,172.5112,214.5251,172.553,214.9623,171.9418,215.625,171.875" style="stroke:#333333;stroke-width:2.0833333333333335;"/><text fill="#FFFFFF" font-family="Segoe Print" font-size="16.6667" font-weight="bold" lengthAdjust="spacing" textLength="85.4167" x="227.0833" y="202.9704">archMain</text><text fill="#FFFFFF" font-family="Segoe Print" font-size="12.5" lengthAdjust="spacing" textLength="126.0417" x="227.0833" y="218.5038">actual class Installer</text></g><!--entity r4--><g id="elem_r4"><polygon fill="#B5838D" points="409.375,171.875,409.375,172.0939,420.0149,171.4434,430.6548,172.0763,441.2946,172.2913,451.9345,171.1319,462.5744,171.794,473.2143,171.4307,483.8542,171.4755,494.494,171.804,505.1339,171.1548,515.7738,172.4517,526.4137,171.2185,537.0536,171.669,547.6935,172.3249,558.3333,171.875,558.3219,171.8475,558.9317,172.141,559.5076,172.3529,560.1248,172.6645,560.7221,172.928,561.2796,173.0954,561.4675,173.1732,561.739,173.7738,561.9857,174.3642,562.0935,174.897,562.4046,175.514,562.5,176.0417,563.2315,176.0417,561.7488,187.4154,563.2068,198.7891,562.1911,210.1628,563.0561,221.5365,562.5,232.9102,562.3412,232.8444,562.2339,233.4903,562.2497,234.1872,561.7521,234.6714,561.5575,235.2812,561.2796,235.8564,561.3246,235.9651,560.7457,236.234,560.1006,236.3433,559.55,236.6808,558.8465,236.6491,558.3333,237.0768,558.3333,237.3731,547.6935,237.6479,537.0536,237.5399,526.4137,237.7154,515.7738,236.5736,505.1339,236.3975,494.494,236.4295,483.8542,237.0155,473.2143,236.8721,462.5744,237.7866,451.9345,236.8949,441.2946,236.7195,430.6548,237.3146,420.0149,236.3822,409.375,237.0768,409.306,236.9103,408.872,237.0409,408.2544,236.7284,407.7048,236.5802,406.9752,235.9973,406.4287,235.8564,406.5311,235.8988,406.374,235.3456,405.789,234.6152,405.6657,234.0759,405.4928,233.5162,405.2083,232.9102,405.8872,232.9102,405.204,221.5365,405.6902,210.1628,404.6315,198.7891,404.5029,187.4154,405.2083,176.0417,405.3699,176.1086,405.2224,175.3571,405.8598,174.9308,406.0069,174.3014,406.0987,173.649,406.4287,173.0954,406.3817,172.9819,407.0789,172.9985,407.5675,172.5112,408.2751,172.553,408.7123,171.9418,409.375,171.875" style="stroke:#333333;stroke-width:2.0833333333333335;"/><text fill="#FFFFFF" font-family="Segoe Print" font-size="16.6667" font-weight="bold" lengthAdjust="spacing" textLength="126.0417" x="420.8333" y="202.9704">windowsMain</text><text fill="#FFFFFF" font-family="Segoe Print" font-size="12.5" lengthAdjust="spacing" textLength="126.0417" x="420.8333" y="218.5038">actual class Installer</text></g><!--reverse link r1 to r2--><g id="link_r1_r2"><path d="M244.5712,87.3029 L244.7515,87.5325 L235.9348,93.3505 L228.1747,100.5145 L220.0706,107.2403 L210.835,112.5245 L203.099,119.7192 L194.5188,125.8384 L186.2745,132.3857 L178.2638,139.2304 L169.4483,145.0498 L162.2348,152.9103 L152.9384,158.117 L145.0282,165.0898 L136.9167,171.8061 " fill="none" style="stroke:#333333;stroke-width:3.125;"/><polygon fill="#333333" points="249.4875,83.4438,249.5054,83.5145,247.4629,83.8065,245.5251,84.5133,243.5532,85.085,241.4691,85.2125,239.5403,85.9549,239.5371,85.9281,240.6927,85.9488,241.8645,86.1046,243.0477,86.3543,244.1918,86.2804,245.3906,86.6597,245.5815,86.6827,245.0324,87.8036,245.0405,88.9916,245.1166,90.1878,244.7972,91.3363,244.6858,92.5099,244.7068,92.521,245.6364,90.6915,246.6613,88.9125,247.6402,87.1091,248.7069,85.3522,249.4875,83.4438" style="stroke:#333333;stroke-width:3.125;"/><text fill="#FFFFFF" font-family="Segoe Print" font-size="12.5" lengthAdjust="spacing" textLength="55.2083" x="211.9792" y="132.4361">points to</text></g><!--reverse link r1 to r3--><g id="link_r1_r3"><path d="M290.1042,89.6938 L290.3961,89.6938 L289.5287,99.9578 L290.3726,110.2218 L290.6593,120.4859 L289.1133,130.7499 L289.9962,141.014 L289.5118,151.278 L289.5715,161.5421 L290.1042,171.8061 " fill="none" style="stroke:#333333;stroke-width:3.125;"/><polygon fill="#333333" points="290.1042,83.4438,290.1709,83.4734,289.1394,85.2603,288.4988,87.221,287.731,89.1251,286.5445,90.8431,285.9375,92.8188,285.9184,92.7997,286.6661,91.8807,287.51,91.0579,288.4208,90.302,289.1011,89.3157,290.1042,88.6521,290.2401,88.788,290.7828,89.3307,291.7223,90.2702,292.7102,91.2581,293.4164,91.9644,294.2708,92.8188,294.2925,92.8284,293.4274,90.9392,292.6608,89.0939,291.8467,87.2275,291.1233,85.4013,290.1042,83.4438" style="stroke:#333333;stroke-width:3.125;"/><text fill="#FFFFFF" font-family="Segoe Print" font-size="12.5" lengthAdjust="spacing" textLength="55.2083" x="296.3542" y="132.4361">points to</text></g><!--reverse link r1 to r4--><g id="link_r1_r4"><path d="M335.6371,87.3029 L335.8174,87.5325 L343.5629,93.3505 L352.3651,100.5145 L360.8232,107.2403 L368.1498,112.5245 L376.9761,119.7192 L384.9581,125.8384 L393.2761,132.3857 L401.8276,139.2304 L409.5743,145.0498 L418.9231,152.9103 L426.1889,158.117 L434.8409,165.0898 L443.2917,171.8061 " fill="none" style="stroke:#333333;stroke-width:3.125;"/><polygon fill="#333333" points="330.7208,83.4438,330.7853,83.4779,331.554,85.1897,332.7008,87.1016,333.7245,88.9484,334.3433,90.5808,335.5225,92.5099,335.4957,92.5067,335.2345,91.3222,335.1084,90.1539,335.0761,88.997,334.7203,87.801,334.8177,86.6597,334.8407,86.8505,335.9616,86.3014,337.1496,86.3096,338.3458,86.3857,339.4944,86.0663,340.668,85.9549,340.6738,85.9779,338.6758,85.4419,336.7043,85.0105,334.72,84.5287,332.76,84.1432,330.7208,83.4438" style="stroke:#333333;stroke-width:3.125;"/><text fill="#FFFFFF" font-family="Segoe Print" font-size="12.5" lengthAdjust="spacing" textLength="55.2083" x="404.6875" y="132.4361">points to</text></g><!--SRC=[XT2nJiD030RW_PxYfnsOEa3Q4Y6wL5aOU0CMSt79YSjTPHi5tXw3eA9If0vUVkkJvV_A1XuP-iOMXyyGXADHUSsCnGwnZcCjJvJAS-6FewyGCwdYiQXHpYmBa49kiDnss_PkSyvxVadqoodQE-LvVelbVjCsRNVEIU9m6JVpU4gbhvDUzkkJ3-4QdT3aXyKf3b97U3qu9543Po-g6Ap-XCgnbXxaOqEI_c-lmUjuMAs-txh7iIQFt9pIPZPT_q-_0000]--></g></svg>