<?xml version="1.0" encoding="us-ascii" standalone="no"?><svg xmlns="http://www.w3.org/2000/svg" xmlns:xlink="http://www.w3.org/1999/xlink" contentStyleType="text/css" height="402.0833px" preserveAspectRatio="none" style="width:519px;height:402px;" version="1.1" viewBox="0 0 519 402" width="519.7917px" zoomAndPan="magnify"><defs/><g><!--entity r1--><g id="elem_r1"><polygon fill="#6D6875" points="296.875,17.7083,296.875,17.9273,307.2917,17.2767,317.7083,17.9097,328.125,18.1247,338.5417,16.9652,348.9583,17.6274,359.375,17.2641,369.7917,17.3089,380.2083,17.6373,390.625,16.9882,401.0417,18.285,411.4583,17.0518,421.875,17.5023,432.2917,18.1583,442.7083,17.619,453.125,17.7083,453.1341,17.7302,453.71,17.9422,454.3272,18.2538,454.9245,18.5173,455.5598,18.8725,456.0713,18.9287,456.2865,19.0179,456.5333,19.6082,456.6411,20.1411,456.9522,20.7581,457.2729,21.3791,457.2917,21.875,456.5404,21.875,457.9984,33.2487,456.9828,44.6224,457.8477,55.9961,456.776,67.3698,457.2917,78.7435,457.2697,78.7344,457.2855,79.4313,456.7879,79.9155,456.5932,80.5252,456.424,81.1455,456.0713,81.6898,456.1266,81.8233,455.4815,81.9326,454.9309,82.2701,454.2275,82.2384,453.752,82.7573,453.125,82.9102,453.125,83.4812,442.7083,83.3732,432.2917,83.5487,421.875,82.4069,411.4583,82.2308,401.0417,82.2629,390.625,82.8488,380.2083,82.7054,369.7917,83.62,359.375,82.7282,348.9583,82.5528,338.5417,83.1479,328.125,82.2155,317.7083,82.3694,307.2917,83.5861,296.875,82.9102,296.9329,83.0499,296.3833,82.9017,295.6537,82.3188,295.1496,82.2803,294.5964,82.1232,293.9287,81.6898,293.7772,81.627,293.6539,81.0878,293.481,80.528,293.4056,80.0086,292.9511,79.3322,292.7083,78.7435,293.1902,78.7435,292.1315,67.3698,292.0029,55.9961,293.2329,44.6224,291.9615,33.2487,292.7083,21.875,292.8716,21.9426,293.0187,21.3132,293.1105,20.6609,293.3271,20.0602,293.8318,19.5789,293.9287,18.9287,293.8889,18.8327,294.5966,18.8745,295.0338,18.2633,295.7785,18.3946,296.3501,18.1078,296.875,17.7083" style="stroke:#333333;stroke-width:2.0833333333333335;"/><text fill="#FFFFFF" font-family="Segoe Print" font-size="16.6667" font-weight="bold" lengthAdjust="spacing" textLength="126.0417" x="308.3333" y="48.8037">commonMain</text><text fill="#FFFFFF" font-family="Segoe Print" font-size="12.5" lengthAdjust="spacing" textLength="133.3333" x="308.3333" y="64.3372">expect class Installer</text></g><!--entity rr--><g id="elem_rr"><polygon fill="#B5838D" points="161.9792,171.875,161.9792,172.0939,172.619,171.4434,183.2589,172.0763,193.8988,172.2913,204.5387,171.1319,215.1786,171.794,225.8185,171.4307,236.4583,171.4755,247.0982,171.804,257.7381,171.1548,268.378,172.4517,279.0179,171.2185,289.6577,171.669,300.2976,172.3249,310.9375,171.875,310.9261,171.8475,311.5358,172.141,312.1118,172.3529,312.729,172.6645,313.3263,172.928,313.8838,173.0954,314.0717,173.1732,314.3431,173.7738,314.5898,174.3642,314.6977,174.897,315.0088,175.514,315.1042,176.0417,315.8357,176.0417,314.3529,187.4154,315.8109,198.7891,314.7953,210.1628,315.6602,221.5365,315.1042,232.9102,314.9454,232.8444,314.8381,233.4903,314.8539,234.1872,314.3563,234.6714,314.1616,235.2812,313.8838,235.8564,313.9288,235.9651,313.3498,236.234,312.7047,236.3433,312.1542,236.6808,311.4507,236.6491,310.9375,237.0768,310.9375,237.3731,300.2976,237.6479,289.6577,237.5399,279.0179,237.7154,268.378,236.5736,257.7381,236.3975,247.0982,236.4295,236.4583,237.0155,225.8185,236.8721,215.1786,237.7866,204.5387,236.8949,193.8988,236.7195,183.2589,237.3146,172.619,236.3822,161.9792,237.0768,161.9102,236.9103,161.4761,237.0409,160.8585,236.7284,160.309,236.5802,159.5794,235.9973,159.0329,235.8564,159.1353,235.8988,158.9782,235.3456,158.3932,234.6152,158.2699,234.0759,158.097,233.5162,157.8125,232.9102,158.4914,232.9102,157.8081,221.5365,158.2943,210.1628,157.2356,198.7891,157.107,187.4154,157.8125,176.0417,157.9741,176.1086,157.8266,175.3571,158.4639,174.9308,158.611,174.3014,158.7029,173.649,159.0329,173.0954,158.9859,172.9819,159.6831,172.9985,160.1716,172.5112,160.8793,172.553,161.3165,171.9418,161.9792,171.875" style="stroke:#333333;stroke-width:2.0833333333333335;"/><text fill="#FFFFFF" font-family="Segoe Print" font-size="16.6667" font-weight="bold" lengthAdjust="spacing" textLength="87.5" x="173.4375" y="202.9704">linuxMain</text><text fill="#FFFFFF" font-family="Segoe Print" font-size="12.5" lengthAdjust="spacing" textLength="126.0417" x="173.4375" y="218.5038">actual class Installer</text></g><!--entity r2--><g id="elem_r2"><polygon fill="#B5838D" points="21.875,326.0417,21.875,326.2606,32.1759,325.6101,42.4769,326.243,52.7778,326.458,63.0787,325.2985,73.3796,325.9607,83.6806,325.5974,93.9815,325.6422,104.2824,325.9707,114.5833,325.3215,124.8843,326.6184,135.1852,325.3851,145.4861,325.8357,155.787,326.4916,166.088,325.9523,176.3889,326.1127,186.6898,326.0084,196.9907,326.2276,207.2917,326.0417,207.3234,326.1184,207.9587,326.4736,208.5593,326.7451,209.1497,326.9918,209.6825,327.0997,210.2379,327.2621,210.3867,327.3237,210.7073,327.9446,210.4948,328.3447,211.1878,329.12,211.1191,329.5797,211.4583,330.2083,212.0144,330.2083,210.9427,341.582,211.387,352.9557,212.2308,364.3294,211.4076,375.7031,211.4583,387.0768,211.4921,387.0908,211.3229,387.7111,211.1037,388.3106,210.7248,388.8441,210.5742,389.472,210.2379,390.0231,210.1619,389.8395,209.6865,390.3584,209.1323,390.6871,208.5292,390.8979,207.9624,391.1961,207.2917,391.2435,207.2917,390.7403,196.9907,390.5641,186.6898,390.5962,176.3889,391.1822,166.088,391.0388,155.787,391.9533,145.4861,391.0615,135.1852,390.8861,124.8843,391.4813,114.5833,390.5489,104.2824,390.7027,93.9815,391.9195,83.6806,391.6973,73.3796,392.0086,63.0787,390.9083,52.7778,391.576,42.4769,391.8585,32.1759,390.7514,21.875,391.2435,21.8623,391.2127,21.3025,391.0398,20.7831,390.9644,20.1067,390.5099,19.5794,390.4156,18.9287,390.0231,18.7511,389.9495,18.4674,389.3439,18.6021,388.9115,17.9665,388.1601,18.1157,387.7337,17.7083,387.0768,17.9236,387.0768,17.4293,375.7031,17.3398,364.3294,18.1862,352.9557,17.3965,341.582,17.7083,330.2083,17.8982,330.287,17.7751,329.5456,18.3946,329.1119,18.5959,328.5049,18.7632,327.8839,18.9287,327.2621,18.935,327.2772,19.6145,327.2511,20.1888,326.9707,20.719,326.5841,21.3214,326.3718,21.875,326.0417" style="stroke:#333333;stroke-width:2.0833333333333335;"/><text fill="#FFFFFF" font-family="Segoe Print" font-size="16.6667" font-weight="bold" lengthAdjust="spacing" textLength="106.25" x="33.3333" y="357.137">debianMain</text><text fill="#FFFFFF" font-family="Segoe Print" font-size="12.5" lengthAdjust="spacing" textLength="162.5" x="33.3333" y="372.6705">actual val manager = 'apt'</text></g><!--entity r3--><g id="elem_r3"><polygon fill="#B5838D" points="252.0833,326.0417,252.0833,326.2606,262.3016,325.6101,272.5198,326.243,282.7381,326.458,292.9563,325.2985,303.1746,325.9607,313.3929,325.5974,323.6111,325.6422,333.8294,325.9707,344.0476,325.3215,354.2659,326.6184,364.4841,325.3851,374.7024,325.8357,384.9206,326.4916,395.1389,325.9523,405.3571,326.1127,415.5754,326.0084,425.7937,326.2276,436.0119,326.2908,446.2302,326.6518,456.4484,326.7407,466.6667,326.0417,466.7569,326.2596,467.2898,326.3674,467.9068,326.6785,468.5277,326.9992,468.9279,326.7866,469.6129,327.2621,469.8306,327.3522,469.7619,327.8119,470.2723,328.5115,470.1864,328.964,470.5673,329.61,470.8333,330.2083,471.6058,330.2083,470.7826,341.582,470.943,352.9557,471.1861,364.3294,471.2669,375.7031,470.8333,387.0768,470.8321,387.0763,470.6814,387.7042,470.1616,388.1793,470.1923,388.8824,470.0329,389.5067,469.6129,390.0231,469.672,390.1657,469.1051,390.4638,468.3702,390.3563,467.7585,390.5461,467.1734,390.8001,466.6667,391.2435,466.6667,391.1822,456.4484,391.0388,446.2302,391.9533,436.0119,391.0615,425.7937,390.8861,415.5754,391.4813,405.3571,390.5489,395.1389,390.7027,384.9206,391.9195,374.7024,391.6973,364.4841,392.0086,354.2659,390.9083,344.0476,391.576,333.8294,391.8585,323.6111,390.7514,313.3929,391.1436,303.1746,391.3747,292.9563,391.9224,282.7381,391.2391,272.5198,391.7253,262.3016,390.6666,252.0833,391.2435,251.9933,391.0262,251.561,391.161,250.8096,390.5253,250.3832,390.6745,249.7538,390.3335,249.1371,390.0231,249.0511,389.9875,248.7795,389.3868,248.7961,388.9055,248.3088,388.2156,248.3506,387.7447,247.9167,387.0768,247.3409,387.0768,248.5598,375.7031,248.4211,364.3294,248.1718,352.9557,247.9659,341.582,247.9167,330.2083,248.1498,330.3049,248.3576,329.7006,248.4591,329.0523,248.7349,328.4762,248.8512,327.834,249.1371,327.2621,249.2323,327.4919,249.7469,327.0677,250.3385,326.8293,250.824,326.3347,251.4402,326.1558,252.0833,326.0417" style="stroke:#333333;stroke-width:2.0833333333333335;"/><text fill="#FFFFFF" font-family="Segoe Print" font-size="16.6667" font-weight="bold" lengthAdjust="spacing" textLength="85.4167" x="263.5417" y="357.137">archMain</text><text fill="#FFFFFF" font-family="Segoe Print" font-size="12.5" lengthAdjust="spacing" textLength="191.6667" x="263.5417" y="372.6705">actual val manager = 'pacman'</text></g><!--entity r4--><g id="elem_r4"><polygon fill="#B5838D" points="355.7292,171.875,355.7292,172.0939,366.369,171.4434,377.0089,172.0763,387.6488,172.2913,398.2887,171.1319,408.9286,171.794,419.5685,171.4307,430.2083,171.4755,440.8482,171.804,451.4881,171.1548,462.128,172.4517,472.7679,171.2185,483.4077,171.669,494.0476,172.3249,504.6875,171.875,504.6761,171.8475,505.2858,172.141,505.8618,172.3529,506.479,172.6645,507.0763,172.928,507.6338,173.0954,507.8217,173.1732,508.0931,173.7738,508.3398,174.3642,508.4477,174.897,508.7588,175.514,508.8542,176.0417,509.5857,176.0417,508.1029,187.4154,509.5609,198.7891,508.5453,210.1628,509.4102,221.5365,508.8542,232.9102,508.6954,232.8444,508.5881,233.4903,508.6039,234.1872,508.1063,234.6714,507.9116,235.2812,507.6338,235.8564,507.6788,235.9651,507.0998,236.234,506.4547,236.3433,505.9042,236.6808,505.2007,236.6491,504.6875,237.0768,504.6875,237.3731,494.0476,237.6479,483.4077,237.5399,472.7679,237.7154,462.128,236.5736,451.4881,236.3975,440.8482,236.4295,430.2083,237.0155,419.5685,236.8721,408.9286,237.7866,398.2887,236.8949,387.6488,236.7195,377.0089,237.3146,366.369,236.3822,355.7292,237.0768,355.6602,236.9103,355.2261,237.0409,354.6085,236.7284,354.059,236.5802,353.3294,235.9973,352.7829,235.8564,352.8853,235.8988,352.7282,235.3456,352.1432,234.6152,352.0199,234.0759,351.847,233.5162,351.5625,232.9102,352.2414,232.9102,351.5581,221.5365,352.0443,210.1628,350.9856,198.7891,350.857,187.4154,351.5625,176.0417,351.7241,176.1086,351.5766,175.3571,352.2139,174.9308,352.361,174.3014,352.4529,173.649,352.7829,173.0954,352.7359,172.9819,353.4331,172.9985,353.9216,172.5112,354.6293,172.553,355.0665,171.9418,355.7292,171.875" style="stroke:#333333;stroke-width:2.0833333333333335;"/><text fill="#FFFFFF" font-family="Segoe Print" font-size="16.6667" font-weight="bold" lengthAdjust="spacing" textLength="126.0417" x="367.1875" y="202.9704">windowsMain</text><text fill="#FFFFFF" font-family="Segoe Print" font-size="12.5" lengthAdjust="spacing" textLength="126.0417" x="367.1875" y="218.5038">actual class Installer</text></g><!--reverse link rr to r2--><g id="link_rr_r2"><path d="M207.001,242.4876 L207.2288,242.6702 L199.8618,250.4763 L193.8301,259.3525 L187.3636,267.8803 L179.467,275.2621 L173.4658,284.1627 L166.3975,292.2083 L159.7539,300.5942 L153.4055,309.2166 L146.0398,317.0238 L140.099,325.9728 " fill="none" style="stroke:#333333;stroke-width:3.125;"/><polygon fill="#333333" points="210.9094,237.6104,210.9429,237.6752,209.0205,238.4247,207.2946,239.5541,205.5047,240.5599,203.5044,241.1586,201.7954,242.3207,201.7924,242.2939,202.9505,242.0443,204.1236,241.93,205.307,241.9096,206.4547,241.5653,207.6524,241.6748,207.8435,241.6958,207.5641,242.8222,207.8425,244.0101,208.189,245.2054,208.1395,246.3571,208.2983,247.5318,208.3212,247.5378,208.8098,245.5447,209.4027,243.579,209.9453,241.6001,210.5838,239.6465,210.9094,237.6104" style="stroke:#333333;stroke-width:3.125;"/><text fill="#FFFFFF" font-family="Segoe Print" font-size="12.5" lengthAdjust="spacing" textLength="55.2083" x="189.5833" y="286.6028">points to</text></g><!--reverse link rr to r3--><g id="link_rr_r3"><path d="M266.1547,242.4713 L266.3817,242.6548 L272.4558,250.4598 L279.8609,259.3404 L286.8325,267.8707 L292.3789,275.2491 L299.8142,284.1542 L306.1862,292.1999 L312.9813,300.5876 L320.0706,309.213 L326.1462,317.0191 L333.6417,325.9728 " fill="none" style="stroke:#333333;stroke-width:3.125;"/><polygon fill="#333333" points="262.226,237.6104,262.2965,237.6293,262.6175,239.5553,263.3518,241.5919,263.9515,243.5926,264.1086,245.4747,264.8784,247.5209,264.8516,247.518,264.8554,246.3333,264.9946,245.1629,265.2278,244.0025,265.1369,242.8078,265.4999,241.6612,265.5202,241.8523,266.6488,241.5678,267.8365,241.8415,269.0315,242.1832,270.1845,242.1288,271.3596,242.2827,271.3704,242.3038,269.5278,241.3384,267.7344,240.469,265.9173,239.5532,264.1454,238.7259,262.226,237.6104" style="stroke:#333333;stroke-width:3.125;"/><text fill="#FFFFFF" font-family="Segoe Print" font-size="12.5" lengthAdjust="spacing" textLength="55.2083" x="312.5" y="286.6028">points to</text></g><!--reverse link r1 to rr--><g id="link_r1_rr"><path d="M341.7484,88.0641 L341.9642,88.2607 L334.3879,95.2895 L328.0767,103.4707 L321.3535,111.2767 L313.2756,117.8485 L306.9932,126.056 L299.7,133.3427 L292.8091,140.9959 L286.1978,148.9037 L278.6228,155.9338 L272.966,164.7112 L265.4625,171.8063 " fill="none" style="stroke:#333333;stroke-width:3.125;"/><polygon fill="#333333" points="345.9573,83.4438,345.9866,83.5106,344.0207,84.1369,342.2268,85.155,340.3769,86.0456,338.3428,86.5166,336.5637,87.5683,336.5624,87.5414,337.734,87.3656,338.912,87.3256,340.0943,87.3801,341.2615,87.1091,342.4499,87.294,342.6419,87.303,342.2861,88.4611,342.491,89.6453,342.7643,90.8327,342.6396,92.0016,342.7242,93.1802,342.7467,93.1877,343.3603,91.2294,344.0763,89.3052,344.7428,87.3645,345.5037,85.4551,345.9573,83.4438" style="stroke:#333333;stroke-width:3.125;"/><text fill="#FFFFFF" font-family="Segoe Print" font-size="12.5" lengthAdjust="spacing" textLength="55.2083" x="320.8333" y="132.4361">points to</text></g><!--reverse link r1 to r4--><g id="link_r1_r4"><path d="M388.7065,89.3187 L388.9809,89.4183 L391.9085,99.4333 L396.4447,110.0322 L400.4571,120.4409 L402.7469,130.2244 L407.3197,140.8366 L410.6073,150.9822 L414.4064,161.3136 L418.65,171.8063 " fill="none" style="stroke:#333333;stroke-width:3.125;"/><polygon fill="#333333" points="386.574,83.4438,386.6468,83.4489,386.2869,85.4805,386.3538,87.5421,386.2817,89.5939,385.7526,91.6137,385.8562,93.6778,385.8317,93.6664,386.221,92.5475,386.7335,91.4861,387.3317,90.4648,387.6346,89.3055,388.3511,88.3395,388.4325,88.5137,389.3261,88.6402,390.4573,89.2753,391.6176,89.9723,392.6091,90.3085,393.6894,90.8344,393.7065,90.8509,392.2583,89.3486,390.8879,87.9212,389.4799,86.4576,388.1435,85.0629,386.574,83.4438" style="stroke:#333333;stroke-width:3.125;"/><text fill="#FFFFFF" font-family="Segoe Print" font-size="12.5" lengthAdjust="spacing" textLength="55.2083" x="411.4583" y="132.4361">points to</text></g><!--SRC=[XP2nJiD038RtF8LfXqmTIjeI8RgWB0oy0OkvkCsfTxx8vvBozXW25P4Y63pSPtt_oV-DTXG9yedKTUz58UGK-HW85djmASR4p-ZvXUdIsmfSm9pXYRDY22GBm0ooXkMksTLtswaUF9yleurEpnZcRO7buxQkwcPgj_JgaIVwcqr4nYC9xA74NiinudO-0iLrVmNqwEprdL7DPmoUspJa_y_ONFsYAA4H7En_CHKEaY9Opt3maXKeMEEieEaBPdA9Mq0RxRoqF_jSM3CFgzNdTVVG9s_8d2kjfdGzKfcbcz_q0m00]--></g></svg>