<?xml version="1.0" encoding="us-ascii" standalone="no"?><svg xmlns="http://www.w3.org/2000/svg" xmlns:xlink="http://www.w3.org/1999/xlink" contentStyleType="text/css" height="454.1667px" preserveAspectRatio="none" style="width:393px;height:454px;" version="1.1" viewBox="0 0 393 454" width="393.75px" zoomAndPan="magnify"><defs><filter height="1" id="b1f2jmm2blc43o0" width="1" x="0" y="0"><feFlood flood-color="#6D6875" result="flood"/><feComposite in="SourceGraphic" in2="flood" operator="over"/></filter></defs><g><!--class Agent--><g id="elem_Agent"><polygon fill="#6D6875" points="127.0833,17.7083,127.0833,17.9273,137.5,17.2767,147.9167,17.9097,158.3333,18.1247,168.75,16.9652,179.1667,17.6274,189.5833,17.2641,200,17.3089,210.4167,17.6373,220.8333,16.9882,231.25,18.285,241.6667,17.0518,252.0833,17.5023,262.5,18.1583,272.9167,17.619,283.3333,17.7794,293.75,17.6751,304.1667,17.8943,314.5833,17.9574,325,18.3184,335.4167,18.4073,345.8333,18.4159,356.25,17.9736,366.6667,18.1912,377.0833,17.7083,377.1766,17.9336,377.5768,17.7211,378.352,18.4141,378.8117,18.3455,379.5113,18.8559,380.0296,18.9287,379.8708,18.8629,380.2517,19.5089,380.7557,20.2058,380.7462,20.69,381.0397,21.2997,381.25,21.875,381.6027,21.875,381.6836,31.8766,381.2459,41.8783,381.5492,51.8799,380.6537,61.8815,381.5462,71.8831,381.821,81.8848,381.7131,91.8864,381.8886,101.888,381.25,111.8896,381.095,111.8255,380.7967,112.3922,380.5625,112.9856,380.4989,113.6496,380.2106,114.2206,380.0296,114.8359,380.1202,115.0545,379.4171,115.024,378.8055,115.214,378.2922,115.6414,377.584,115.5983,377.0833,116.0563,377.0833,115.5156,366.6667,116.7323,356.25,116.5101,345.8333,116.8214,335.4167,115.7211,325,116.3888,314.5833,116.6713,304.1667,115.5642,293.75,115.9565,283.3333,116.1875,272.9167,116.7352,262.5,116.0519,252.0833,116.5382,241.6667,115.4795,231.25,115.3508,220.8333,116.5809,210.4167,115.3095,200,116.5865,189.5833,116.2716,179.1667,115.7772,168.75,115.6878,158.3333,116.5342,147.9167,115.7445,137.5,116.6728,127.0833,116.0563,127.0099,115.879,126.5761,116.0103,125.9692,115.7235,125.3481,115.4027,124.7326,115.0952,124.1371,114.8359,124.3701,114.9325,124.0898,114.3282,123.7032,113.6799,123.4909,113.1038,123.119,112.4616,122.9167,111.8896,123.663,111.8896,123.078,101.888,123.0964,91.8864,122.283,81.8848,122.4946,71.8831,123.4695,61.8815,123.3643,51.8799,122.8719,41.8783,122.5811,31.8766,122.9167,21.875,122.8464,21.8459,122.9406,21.1946,123.5379,20.7516,123.8861,20.2055,124.0618,19.5879,124.1371,18.9287,124.2294,19.1516,124.7081,18.6408,125.3272,18.4685,125.8533,18.0722,126.5318,18.0435,127.0833,17.7083" style="stroke:#333333;stroke-width:1.0416666666666667;"/><polygon fill="#B5838D" points="127.0833,17.7083,127.0833,17.9273,137.5,17.2767,147.9167,17.9097,158.3333,18.1247,168.75,16.9652,179.1667,17.6274,189.5833,17.2641,200,17.3089,210.4167,17.6373,220.8333,16.9882,231.25,18.285,241.6667,17.0518,252.0833,17.5023,262.5,18.1583,272.9167,17.619,283.3333,17.7794,293.75,17.6751,304.1667,17.8943,314.5833,17.9574,325,18.3184,335.4167,18.4073,345.8333,18.4159,356.25,17.9736,366.6667,18.1912,377.0833,17.7083,377.1766,17.9336,377.5768,17.7211,378.352,18.4141,378.8117,18.3455,379.5113,18.8559,380.0296,18.9287,379.8708,18.8629,380.2517,19.5089,380.7557,20.2058,380.7462,20.69,381.0397,21.2997,381.25,21.875,381.3676,21.875,381.3945,27.0426,381.2486,32.2103,381.3497,37.3779,381.0512,42.5456,381.25,47.7132,381.3412,47.751,381.1818,48.3753,380.9044,48.9508,380.7144,49.5624,380.1187,50.006,380.0296,50.6595,379.943,50.4503,379.3578,50.7042,378.8433,51.1288,378.2357,51.3287,377.7631,51.8544,377.0833,51.8799,377.0833,51.6979,366.6667,51.5225,356.25,52.1177,345.8333,51.1853,335.4167,51.3391,325,52.5559,314.5833,52.3337,304.1667,52.645,293.75,51.5447,283.3333,52.2124,272.9167,52.4949,262.5,51.3878,252.0833,51.78,241.6667,52.0111,231.25,52.5588,220.8333,51.8755,210.4167,52.3617,200,51.303,189.5833,51.1744,179.1667,52.4045,168.75,51.1331,158.3333,52.4101,147.9167,52.0951,137.5,51.6008,127.0833,51.8799,127.0363,51.7664,126.555,51.783,125.865,51.2957,125.3942,51.3375,124.6529,50.7263,124.1371,50.6595,124.3351,50.7415,124.0483,50.1346,123.7275,49.5135,123.42,48.898,123.3938,48.399,122.9167,47.7132,123.1297,47.7132,122.9754,42.5456,123.0098,37.3779,122.8714,32.2103,123.1654,27.0426,122.9167,21.875,122.9663,21.8956,123.2161,21.3087,123.2097,20.6157,123.5189,20.0534,124.0632,19.5885,124.1371,18.9287,124.1942,19.0666,124.7206,18.6709,125.2728,18.3372,125.8757,18.1263,126.4029,17.7323,127.0833,17.7083" style="stroke:#B5838D;stroke-width:1.0416666666666667;"/><polygon fill="#B5838D" points="122.9167,47.7132,122.9167,47.9322,133.25,47.2816,143.5833,47.9146,153.9167,48.1295,164.25,46.9701,174.5833,47.6323,184.9167,47.269,195.25,47.3137,205.5833,47.6422,215.9167,46.993,226.25,48.2899,236.5833,47.0567,246.9167,47.5072,257.25,48.1632,267.5833,47.6239,277.9167,47.7843,288.25,47.6799,298.5833,47.8992,308.9167,47.9623,319.25,48.3233,329.5833,48.4122,339.9167,48.4208,350.25,47.9785,360.5833,48.1961,370.9167,48.4447,381.25,47.7132,380.9996,47.7132,381.4856,48.5465,381.147,49.3799,381.4354,50.2132,381.0781,51.0465,381.25,51.8799,381.25,51.8085,370.9167,52.6524,360.5833,51.8291,350.25,51.9896,339.9167,52.2326,329.5833,52.3135,319.25,51.8758,308.9167,52.1791,298.5833,51.2836,288.25,52.1761,277.9167,52.4509,267.5833,52.3429,257.25,52.5185,246.9167,51.3767,236.5833,51.2005,226.25,51.2326,215.9167,51.8185,205.5833,51.6752,195.25,52.5897,184.9167,51.6979,174.5833,51.5225,164.25,52.1177,153.9167,51.1853,143.5833,51.3391,133.25,52.5559,122.9167,51.8799,123.0679,51.8799,123.1717,51.0465,122.8049,50.2132,123.0275,49.3799,123.1217,48.5465,122.9167,47.7132" style="stroke:#B5838D;stroke-width:1.0416666666666667;"/><polygon fill="none" points="127.0833,17.7083,127.0833,17.9273,137.5,17.2767,147.9167,17.9097,158.3333,18.1247,168.75,16.9652,179.1667,17.6274,189.5833,17.2641,200,17.3089,210.4167,17.6373,220.8333,16.9882,231.25,18.285,241.6667,17.0518,252.0833,17.5023,262.5,18.1583,272.9167,17.619,283.3333,17.7794,293.75,17.6751,304.1667,17.8943,314.5833,17.9574,325,18.3184,335.4167,18.4073,345.8333,18.4159,356.25,17.9736,366.6667,18.1912,377.0833,17.7083,377.1766,17.9336,377.5768,17.7211,378.352,18.4141,378.8117,18.3455,379.5113,18.8559,380.0296,18.9287,379.8708,18.8629,380.2517,19.5089,380.7557,20.2058,380.7462,20.69,381.0397,21.2997,381.25,21.875,381.6027,21.875,381.6836,31.8766,381.2459,41.8783,381.5492,51.8799,380.6537,61.8815,381.5462,71.8831,381.821,81.8848,381.7131,91.8864,381.8886,101.888,381.25,111.8896,381.095,111.8255,380.7967,112.3922,380.5625,112.9856,380.4989,113.6496,380.2106,114.2206,380.0296,114.8359,380.1202,115.0545,379.4171,115.024,378.8055,115.214,378.2922,115.6414,377.584,115.5983,377.0833,116.0563,377.0833,115.5156,366.6667,116.7323,356.25,116.5101,345.8333,116.8214,335.4167,115.7211,325,116.3888,314.5833,116.6713,304.1667,115.5642,293.75,115.9565,283.3333,116.1875,272.9167,116.7352,262.5,116.0519,252.0833,116.5382,241.6667,115.4795,231.25,115.3508,220.8333,116.5809,210.4167,115.3095,200,116.5865,189.5833,116.2716,179.1667,115.7772,168.75,115.6878,158.3333,116.5342,147.9167,115.7445,137.5,116.6728,127.0833,116.0563,127.0099,115.879,126.5761,116.0103,125.9692,115.7235,125.3481,115.4027,124.7326,115.0952,124.1371,114.8359,124.3701,114.9325,124.0898,114.3282,123.7032,113.6799,123.4909,113.1038,123.119,112.4616,122.9167,111.8896,123.663,111.8896,123.078,101.888,123.0964,91.8864,122.283,81.8848,122.4946,71.8831,123.4695,61.8815,123.3643,51.8799,122.8719,41.8783,122.5811,31.8766,122.9167,21.875,122.8464,21.8459,122.9406,21.1946,123.5379,20.7516,123.8861,20.2055,124.0618,19.5879,124.1371,18.9287,124.2294,19.1516,124.7081,18.6408,125.3272,18.4685,125.8533,18.0722,126.5318,18.0435,127.0833,17.7083" style="stroke:#333333;stroke-width:1.0416666666666667;"/><polygon fill="none" points="236.5159,37.3279,234.989,39.4142,233.183,42.47,230.6,44.5293,227.8858,45.6555,225.7216,45.7532,222.94,44.3448,220.3155,43.4247,218.3234,41.5566,217.2785,39.4179,216.6588,37.7151,216.0517,35.4908,215.0663,33.5768,215.8235,31.7079,216.4869,29.6608,218.9766,28.0417,220.7282,25.941,222.8962,25.2434,225.4736,24.6426,228.7788,24.9996,230.5891,25.8533,232.6939,26.2403,235.253,28.8623,236.1451,31.6302,236.5327,33.5189,236.0937,36.6311" style="stroke:#2E2E2E;stroke-width:1.0416666666666667;"/><path d="M227.946,39.2212 Q227.5228,39.4328 227.0508,39.5467 Q226.5788,39.6606 226.0742,39.6606 Q224.2188,39.6606 223.2422,38.4562 Q222.2819,37.2355 222.2819,34.9406 Q222.2819,32.6294 223.2422,31.425 Q224.2188,30.2043 226.0742,30.2043 Q226.5788,30.2043 227.0508,30.3182 Q227.5391,30.4159 227.946,30.6437 L227.946,32.6457 Q227.4902,32.2225 227.0508,32.0272 Q226.6113,31.8156 226.1556,31.8156 Q225.1628,31.8156 224.6582,32.6131 Q224.1536,33.3944 224.1536,34.9406 Q224.1536,36.4705 224.6582,37.2518 Q225.1628,38.033 226.1556,38.033 Q226.6113,38.033 227.0508,37.8377 Q227.4902,37.6424 227.946,37.2192 L227.946,39.2212 Z " fill="#FFFFFF"/><text fill="#FFFFFF" font-family="Segoe Print" font-size="11.4583" lengthAdjust="spacing" textLength="33.3333" x="251.0417" y="38.7609">Agent</text><path d="M123.9583,51.8799 L123.9583,52.1718 L134.2083,51.3044 L144.4583,52.1483 L154.7083,52.435 L164.9583,50.8891 L175.2083,51.7719 L185.4583,51.2875 L195.7083,51.3472 L205.9583,51.7852 L216.2083,50.9196 L226.4583,52.6488 L236.7083,51.0045 L246.9583,51.6052 L257.2083,52.4798 L267.4583,51.7607 L277.7083,51.9747 L287.9583,51.8355 L298.2083,52.1278 L308.4583,52.212 L318.7083,52.6933 L328.9583,52.8119 L339.2083,52.8233 L349.4583,52.2335 L359.7083,52.5238 L369.9583,52.8552 L380.2083,51.8799 " fill="#6D6875" style="stroke:#333333;stroke-width:1.0416666666666667;"/><path d="M123.9583,60.2132 L123.9583,60.5051 L134.2083,59.6378 L144.4583,60.4817 L154.7083,60.7683 L164.9583,59.2224 L175.2083,60.1053 L185.4583,59.6209 L195.7083,59.6806 L205.9583,60.1186 L216.2083,59.253 L226.4583,60.9822 L236.7083,59.3378 L246.9583,59.9385 L257.2083,60.8131 L267.4583,60.0941 L277.7083,60.308 L287.9583,60.1688 L298.2083,60.4612 L308.4583,60.5453 L318.7083,61.0267 L328.9583,61.1452 L339.2083,61.1566 L349.4583,60.5669 L359.7083,60.8571 L369.9583,61.1885 L380.2083,60.2132 " fill="#6D6875" style="stroke:#333333;stroke-width:1.0416666666666667;"/><text fill="#FFFFFF" font-family="Segoe Print" font-size="11.4583" lengthAdjust="spacing" textLength="139.5833" x="134.375" y="80.2241">act(state: State): Action</text><text fill="#FFFFFF" font-family="Segoe Print" font-size="11.4583" lengthAdjust="spacing" textLength="235.4167" x="134.375" y="103.979">learn(reward: Reward, newState: State)</text></g><!--class Environment--><g id="elem_Environment"><polygon fill="#6D6875" points="21.875,204.5938,21.875,204.8127,32.4013,204.1622,42.9276,204.7951,53.4539,205.0101,63.9803,203.8506,74.5066,204.5128,85.0329,204.1495,95.5592,204.1943,106.0855,204.5228,116.6118,203.8736,127.1382,205.1705,137.6645,203.9372,148.1908,204.3877,158.7171,205.0437,169.2434,204.5044,179.7697,204.6648,190.2961,204.5605,200.8224,204.7797,211.3487,204.8428,221.875,204.5938,221.9528,204.7816,222.5534,205.0531,223.1438,205.2998,223.6766,205.4077,224.2936,205.7188,224.8213,205.8141,225.0465,205.9074,224.834,206.3076,225.5271,207.0828,225.4584,207.5425,225.9688,208.2421,226.0417,208.7604,225.526,208.7604,225.9703,219.8037,226.8142,230.847,225.9909,241.8903,226.1514,252.9336,226.3944,263.9769,226.0417,275.0202,226.1752,275.0755,225.7963,275.6089,225.6456,276.2369,225.1258,276.7119,225.1566,277.415,224.8213,277.9665,224.8941,278.1423,224.2911,278.3531,223.7242,278.6513,222.9893,278.5437,222.3776,278.7336,221.875,279.1868,221.875,278.5396,211.3487,279.1255,200.8224,278.9821,190.2961,279.8967,179.7697,279.0049,169.2434,278.8295,158.7171,279.4246,148.1908,278.4922,137.6645,278.6461,127.1382,279.8628,116.6118,279.6407,106.0855,279.9519,95.5592,278.8516,85.0329,279.5193,74.5066,279.8019,63.9803,278.6948,53.4539,279.087,42.9276,279.3181,32.4013,279.8658,21.875,279.1868,21.8744,279.1855,21.3472,279.0912,20.6229,278.521,20.0172,278.2374,19.5849,278.3721,18.9287,277.9665,18.6987,277.8712,18.8479,277.4448,18.5069,276.8154,18.1105,276.1631,17.8389,275.5624,17.7083,275.0202,18.1862,275.0202,17.3965,263.9769,18.3249,252.9336,17.1326,241.8903,18.3515,230.847,18.2128,219.8037,17.7083,208.7604,17.7869,208.793,17.9676,208.1774,18.4296,207.6785,18.6374,207.0742,18.7389,206.4259,18.9287,205.8141,18.9644,205.9002,19.5007,205.5283,20.2024,205.5558,20.7171,205.1316,21.3087,204.8932,21.875,204.5938" style="stroke:#333333;stroke-width:1.0416666666666667;"/><polygon fill="#B5838D" points="21.875,204.5938,21.875,204.8127,32.4013,204.1622,42.9276,204.7951,53.4539,205.0101,63.9803,203.8506,74.5066,204.5128,85.0329,204.1495,95.5592,204.1943,106.0855,204.5228,116.6118,203.8736,127.1382,205.1705,137.6645,203.9372,148.1908,204.3877,158.7171,205.0437,169.2434,204.5044,179.7697,204.6648,190.2961,204.5605,200.8224,204.7797,211.3487,204.8428,221.875,204.5938,221.9528,204.7816,222.5534,205.0531,223.1438,205.2998,223.6766,205.4077,224.2936,205.7188,224.8213,205.8141,225.0465,205.9074,224.834,206.3076,225.5271,207.0828,225.4584,207.5425,225.9688,208.2421,226.0417,208.7604,225.8698,208.7604,226.0179,213.9281,226.2992,219.0957,226.0247,224.2633,226.0782,229.431,226.0417,234.5986,226.1503,234.6436,225.9311,235.2432,225.5523,235.7766,225.4016,236.4046,224.8817,236.8796,224.8213,237.5449,224.8591,237.6361,224.3049,237.9648,223.7018,238.1757,223.135,238.4738,222.4001,238.3663,221.875,238.7653,221.875,238.0859,211.3487,238.118,200.8224,238.704,190.2961,238.5606,179.7697,239.4751,169.2434,238.5833,158.7171,238.408,148.1908,239.0031,137.6645,238.0707,127.1382,238.2245,116.6118,239.4413,106.0855,239.2191,95.5592,239.5304,85.0329,238.4301,74.5066,239.0978,63.9803,239.3803,53.4539,238.2732,42.9276,238.6654,32.4013,238.8965,21.875,238.7653,21.9616,238.9744,21.2852,238.5199,20.758,238.4255,20.0336,237.8554,19.428,237.5717,18.9287,237.5449,19.0903,237.6118,18.4547,236.8604,18.6038,236.434,18.2628,235.8046,17.8665,235.1523,17.7083,234.5986,17.5855,234.5986,17.8676,229.431,17.6044,224.2633,17.9138,219.0957,17.5164,213.9281,17.7083,208.7604,17.9064,208.8425,18.1078,208.2355,18.2751,207.6145,18.4557,206.9989,18.9177,206.4999,18.9287,205.8141,19.0103,206.011,19.5405,205.6244,20.1429,205.412,20.6792,205.0401,21.3809,205.0677,21.875,204.5938" style="stroke:#B5838D;stroke-width:1.0416666666666667;"/><polygon fill="#B5838D" points="17.7083,234.5986,17.7083,234.8176,28.125,234.167,38.5417,234.8,48.9583,235.015,59.375,233.8555,69.7917,234.5177,80.2083,234.1544,90.625,234.1992,101.0417,234.5276,111.4583,233.8785,121.875,235.1753,132.2917,233.9421,142.7083,234.3926,153.125,235.0486,163.5417,234.5093,173.9583,234.6697,184.375,234.5654,194.7917,234.7846,205.2083,234.8477,215.625,235.2087,226.0417,234.5986,226.2747,234.5986,226.2775,235.432,226.1301,236.2653,226.2026,237.0986,226.2855,237.932,226.0417,238.7653,226.0417,238.0141,215.625,239.4721,205.2083,238.4564,194.7917,239.3214,184.375,238.2497,173.9583,238.6939,163.5417,239.5378,153.125,238.7145,142.7083,238.875,132.2917,239.118,121.875,239.1989,111.4583,238.7612,101.0417,239.0645,90.625,238.169,80.2083,239.0615,69.7917,239.3363,59.375,239.2284,48.9583,239.4039,38.5417,238.2621,28.125,238.0859,17.7083,238.7653,17.4926,238.7653,17.6879,237.932,17.6401,237.0986,17.9449,236.2653,17.6477,235.432,17.7083,234.5986" style="stroke:#B5838D;stroke-width:1.0416666666666667;"/><polygon fill="none" points="21.875,204.5938,21.875,204.8127,32.4013,204.1622,42.9276,204.7951,53.4539,205.0101,63.9803,203.8506,74.5066,204.5128,85.0329,204.1495,95.5592,204.1943,106.0855,204.5228,116.6118,203.8736,127.1382,205.1705,137.6645,203.9372,148.1908,204.3877,158.7171,205.0437,169.2434,204.5044,179.7697,204.6648,190.2961,204.5605,200.8224,204.7797,211.3487,204.8428,221.875,204.5938,221.9528,204.7816,222.5534,205.0531,223.1438,205.2998,223.6766,205.4077,224.2936,205.7188,224.8213,205.8141,225.0465,205.9074,224.834,206.3076,225.5271,207.0828,225.4584,207.5425,225.9688,208.2421,226.0417,208.7604,225.526,208.7604,225.9703,219.8037,226.8142,230.847,225.9909,241.8903,226.1514,252.9336,226.3944,263.9769,226.0417,275.0202,226.1752,275.0755,225.7963,275.6089,225.6456,276.2369,225.1258,276.7119,225.1566,277.415,224.8213,277.9665,224.8941,278.1423,224.2911,278.3531,223.7242,278.6513,222.9893,278.5437,222.3776,278.7336,221.875,279.1868,221.875,278.5396,211.3487,279.1255,200.8224,278.9821,190.2961,279.8967,179.7697,279.0049,169.2434,278.8295,158.7171,279.4246,148.1908,278.4922,137.6645,278.6461,127.1382,279.8628,116.6118,279.6407,106.0855,279.9519,95.5592,278.8516,85.0329,279.5193,74.5066,279.8019,63.9803,278.6948,53.4539,279.087,42.9276,279.3181,32.4013,279.8658,21.875,279.1868,21.8744,279.1855,21.3472,279.0912,20.6229,278.521,20.0172,278.2374,19.5849,278.3721,18.9287,277.9665,18.6987,277.8712,18.8479,277.4448,18.5069,276.8154,18.1105,276.1631,17.8389,275.5624,17.7083,275.0202,18.1862,275.0202,17.3965,263.9769,18.3249,252.9336,17.1326,241.8903,18.3515,230.847,18.2128,219.8037,17.7083,208.7604,17.7869,208.793,17.9676,208.1774,18.4296,207.6785,18.6374,207.0742,18.7389,206.4259,18.9287,205.8141,18.9644,205.9002,19.5007,205.5283,20.2024,205.5558,20.7171,205.1316,21.3087,204.8932,21.875,204.5938" style="stroke:#333333;stroke-width:1.0416666666666667;"/><polygon fill="none" points="85.995,224.2133,84.4681,226.2996,82.6621,229.3554,80.0792,231.4147,77.3649,232.5409,75.2008,232.6386,72.4192,231.2302,69.7947,230.3101,67.8026,228.442,66.7576,226.3034,66.1379,224.6005,65.5308,222.3762,64.5454,220.4622,65.3027,218.5934,65.9661,216.5462,68.4558,214.9271,70.2074,212.8264,72.3754,212.1288,74.9528,211.5281,78.258,211.885,80.0683,212.7387,82.173,213.1257,84.7322,215.7477,85.6243,218.5157,86.0119,220.4043,85.5729,223.5165" style="stroke:#2E2E2E;stroke-width:1.0416666666666667;"/><path d="M77.4251,226.1066 Q77.002,226.3182 76.5299,226.4321 Q76.0579,226.5461 75.5534,226.5461 Q73.6979,226.5461 72.7214,225.3416 Q71.7611,224.1209 71.7611,221.826 Q71.7611,219.5148 72.7214,218.3104 Q73.6979,217.0897 75.5534,217.0897 Q76.0579,217.0897 76.5299,217.2036 Q77.0182,217.3013 77.4251,217.5291 L77.4251,219.5311 Q76.9694,219.1079 76.5299,218.9126 Q76.0905,218.701 75.6348,218.701 Q74.6419,218.701 74.1374,219.4985 Q73.6328,220.2798 73.6328,221.826 Q73.6328,223.356 74.1374,224.1372 Q74.6419,224.9185 75.6348,224.9185 Q76.0905,224.9185 76.5299,224.7231 Q76.9694,224.5278 77.4251,224.1047 L77.4251,226.1066 Z " fill="#FFFFFF"/><text fill="#FFFFFF" font-family="Segoe Print" font-size="11.4583" lengthAdjust="spacing" textLength="73.9583" x="100.5208" y="225.6463">Environment</text><path d="M18.75,238.7653 L18.75,239.0572 L29.0625,238.1899 L39.375,239.0338 L49.6875,239.3204 L60,237.7745 L70.3125,238.6574 L80.625,238.1729 L90.9375,238.2327 L101.25,238.6706 L111.5625,237.8051 L121.875,239.5342 L132.1875,237.8899 L142.5,238.4906 L152.8125,239.3652 L163.125,238.6462 L173.4375,238.8601 L183.75,238.7209 L194.0625,239.0133 L204.375,239.0974 L214.6875,239.5788 L225,238.7653 " fill="#6D6875" style="stroke:#333333;stroke-width:1.0416666666666667;"/><path d="M18.75,247.0986 L18.75,247.3906 L29.0625,246.5232 L39.375,247.3671 L49.6875,247.6537 L60,246.1078 L70.3125,246.9907 L80.625,246.5063 L90.9375,246.566 L101.25,247.004 L111.5625,246.1384 L121.875,247.8676 L132.1875,246.2232 L142.5,246.824 L152.8125,247.6986 L163.125,246.9795 L173.4375,247.1934 L183.75,247.0543 L194.0625,247.3466 L204.375,247.4308 L214.6875,247.9121 L225,247.0986 " fill="#6D6875" style="stroke:#333333;stroke-width:1.0416666666666667;"/><text fill="#FFFFFF" font-family="Segoe Print" font-size="11.4583" lengthAdjust="spacing" textLength="185.4167" x="29.1667" y="267.1095">step(action: Action): StepResult</text></g><!--class Reward--><g id="elem_Reward"><polygon fill="#6D6875" points="171.3542,367.7292,171.3542,367.9481,181.1198,367.2976,190.8854,367.9305,200.651,368.1455,210.4167,366.986,220.1823,367.6482,229.9479,367.2849,239.7135,367.3297,249.4792,367.7292,249.4701,367.7073,249.9766,367.7515,250.7312,368.3949,251.1632,368.2592,251.8099,368.642,252.4254,368.9496,252.564,369.007,252.642,369.5274,252.9355,370.1371,253.1474,370.7131,253.459,371.3303,253.6458,371.8958,253.8949,371.8958,254.2559,382.9391,254.3448,393.9824,254.3534,405.0257,253.9111,416.069,254.1287,427.1123,253.6458,438.1556,253.8711,438.2489,253.1704,438.649,253.3753,439.4243,252.8185,439.884,252.8408,440.5836,252.4254,441.1019,252.3597,440.9431,251.8271,441.324,251.3455,441.8279,250.6512,441.8185,250.0824,442.112,249.4792,442.3223,249.4792,442.675,239.7135,442.7558,229.9479,442.3182,220.1823,442.6214,210.4167,441.726,200.651,442.6185,190.8854,442.8933,181.1198,442.7853,171.3542,442.3223,171.4356,442.5189,170.7007,441.9232,170.089,441.6249,169.5038,441.3907,168.9893,441.3271,168.4079,441.1019,168.3448,441.0758,168.3824,440.6032,167.8637,439.9002,167.5656,439.2885,167.5048,438.7752,167.1875,438.1556,166.4929,438.1556,166.6467,427.1123,167.8635,416.069,167.6413,405.0257,167.9526,393.9824,166.8523,382.9391,167.1875,371.8958,167.2899,371.9382,167.621,371.385,167.5241,370.6546,167.889,370.1153,168.2042,369.5556,168.4079,368.9496,168.4945,369.1586,168.9966,368.7041,169.6479,368.6098,170.1021,368.0397,170.6749,367.756,171.3542,367.7292" style="stroke:#333333;stroke-width:1.0416666666666667;"/><polygon fill="#B5838D" points="171.3542,367.7292,171.3542,367.9481,181.1198,367.2976,190.8854,367.9305,200.651,368.1455,210.4167,366.986,220.1823,367.6482,229.9479,367.2849,239.7135,367.3297,249.4792,367.7292,249.4701,367.7073,249.9766,367.7515,250.7312,368.3949,251.1632,368.2592,251.8099,368.642,252.4254,368.9496,252.564,369.007,252.642,369.5274,252.9355,370.1371,253.1474,370.7131,253.459,371.3303,253.6458,371.8958,253.7289,371.8958,253.8492,377.0635,253.8788,382.2311,253.8817,387.3988,253.7342,392.5664,253.6458,397.734,253.7945,397.7956,253.627,398.4166,252.9263,398.8167,253.1313,399.592,252.5744,400.0517,252.4254,400.6803,252.4964,400.8516,251.7704,400.7656,251.2378,401.1465,250.7562,401.6505,250.0619,401.641,249.4792,401.9007,249.4792,402.0104,239.7135,402.2535,229.9479,402.3343,220.1823,401.8966,210.4167,402.1999,200.651,401.3044,190.8854,402.197,181.1198,402.4718,171.3542,401.9007,171.4132,402.0433,170.8464,401.8533,170.1115,401.2576,169.4997,400.9593,168.9146,400.7251,168.4079,400.6803,168.389,400.6725,168.1008,400.065,168.1383,399.5924,167.6196,398.8894,167.3215,398.2777,167.1875,397.734,167.2668,397.734,166.956,392.5664,167.0072,387.3988,167.4128,382.2311,167.3388,377.0635,167.1875,371.8958,167.4231,371.9934,167.3283,371.2638,167.7781,370.7597,168.1091,370.2065,168.0123,369.476,168.4079,368.9496,168.3952,368.9188,169.0139,368.7459,169.673,368.6705,170.1751,368.216,170.8264,368.1216,171.3542,367.7292" style="stroke:#B5838D;stroke-width:1.0416666666666667;"/><polygon fill="#B5838D" points="167.1875,397.734,167.1875,397.953,177.9948,397.3025,188.8021,397.9354,199.6094,398.1504,210.4167,396.9909,221.224,397.6531,232.0313,397.2898,242.8385,397.3346,253.6458,397.734,253.6222,397.734,253.4058,398.5674,253.8381,399.4007,253.427,400.234,253.5772,401.0674,253.6458,401.9007,253.6458,402.3507,242.8385,401.8114,232.0313,401.9718,221.224,401.8674,210.4167,402.0867,199.6094,402.1498,188.8021,402.5108,177.9948,402.5997,167.1875,401.9007,167.4234,401.9007,167.2759,401.0674,167.3485,400.234,167.4313,399.4007,166.9371,398.5674,167.1875,397.734" style="stroke:#B5838D;stroke-width:1.0416666666666667;"/><polygon fill="none" points="171.3542,367.7292,171.3542,367.9481,181.1198,367.2976,190.8854,367.9305,200.651,368.1455,210.4167,366.986,220.1823,367.6482,229.9479,367.2849,239.7135,367.3297,249.4792,367.7292,249.4701,367.7073,249.9766,367.7515,250.7312,368.3949,251.1632,368.2592,251.8099,368.642,252.4254,368.9496,252.564,369.007,252.642,369.5274,252.9355,370.1371,253.1474,370.7131,253.459,371.3303,253.6458,371.8958,253.8949,371.8958,254.2559,382.9391,254.3448,393.9824,254.3534,405.0257,253.9111,416.069,254.1287,427.1123,253.6458,438.1556,253.8711,438.2489,253.1704,438.649,253.3753,439.4243,252.8185,439.884,252.8408,440.5836,252.4254,441.1019,252.3597,440.9431,251.8271,441.324,251.3455,441.8279,250.6512,441.8185,250.0824,442.112,249.4792,442.3223,249.4792,442.675,239.7135,442.7558,229.9479,442.3182,220.1823,442.6214,210.4167,441.726,200.651,442.6185,190.8854,442.8933,181.1198,442.7853,171.3542,442.3223,171.4356,442.5189,170.7007,441.9232,170.089,441.6249,169.5038,441.3907,168.9893,441.3271,168.4079,441.1019,168.3448,441.0758,168.3824,440.6032,167.8637,439.9002,167.5656,439.2885,167.5048,438.7752,167.1875,438.1556,166.4929,438.1556,166.6467,427.1123,167.8635,416.069,167.6413,405.0257,167.9526,393.9824,166.8523,382.9391,167.1875,371.8958,167.2899,371.9382,167.621,371.385,167.5241,370.6546,167.889,370.1153,168.2042,369.5556,168.4079,368.9496,168.4945,369.1586,168.9966,368.7041,169.6479,368.6098,170.1021,368.0397,170.6749,367.756,171.3542,367.7292" style="stroke:#333333;stroke-width:1.0416666666666667;"/><polygon fill="none" points="192.7138,387.3487,191.1869,389.435,189.3809,392.4908,186.7979,394.5502,184.0837,395.6763,181.9195,395.7741,179.138,394.3656,176.5134,393.4455,174.5213,391.5774,173.4764,389.4388,172.8567,387.7359,172.2496,385.5116,171.2642,383.5976,172.0214,381.7288,172.6848,379.6816,175.1745,378.0626,176.9261,375.9618,179.0941,375.2642,181.6715,374.6635,184.9767,375.0204,186.787,375.8742,188.8918,376.2611,191.4509,378.8831,192.3431,381.6511,192.7307,383.5397,192.2916,386.6519" style="stroke:#2E2E2E;stroke-width:1.0416666666666667;"/><path d="M184.1439,389.242 Q183.7207,389.4536 183.2487,389.5675 Q182.7767,389.6815 182.2721,389.6815 Q180.4167,389.6815 179.4401,388.4771 Q178.4798,387.2563 178.4798,384.9614 Q178.4798,382.6502 179.4401,381.4458 Q180.4167,380.2251 182.2721,380.2251 Q182.7767,380.2251 183.2487,380.339 Q183.737,380.4367 184.1439,380.6646 L184.1439,382.6665 Q183.6882,382.2433 183.2487,382.048 Q182.8092,381.8364 182.3535,381.8364 Q181.3607,381.8364 180.8561,382.634 Q180.3516,383.4152 180.3516,384.9614 Q180.3516,386.4914 180.8561,387.2726 Q181.3607,388.0539 182.3535,388.0539 Q182.8092,388.0539 183.2487,387.8586 Q183.6882,387.6632 184.1439,387.2401 L184.1439,389.242 Z " fill="#FFFFFF"/><text fill="#FFFFFF" font-family="Segoe Print" font-size="11.4583" lengthAdjust="spacing" textLength="43.75" x="201.0938" y="388.7817">Reward</text><path d="M168.2292,401.9007 L168.2292,402.1926 L178.776,401.3253 L189.3229,402.1692 L199.8698,402.4558 L210.4167,400.9099 L220.9635,401.7928 L231.5104,401.3084 L242.0573,401.3681 L252.6042,401.9007 " fill="#6D6875" style="stroke:#333333;stroke-width:1.0416666666666667;"/><text fill="#FFFFFF" font-family="Segoe Print" font-size="11.4583" lengthAdjust="spacing" textLength="63.5417" x="178.6458" y="421.9116">int amount</text><path d="M168.2292,433.9889 L168.2292,434.2809 L178.776,433.4135 L189.3229,434.2574 L199.8698,434.544 L210.4167,432.9981 L220.9635,433.881 L231.5104,433.3966 L242.0573,433.4563 L252.6042,433.9889 " fill="#6D6875" style="stroke:#333333;stroke-width:1.0416666666666667;"/></g><!--link Agent to Environment--><g id="link_Agent_Environment"><path d="M215.4688,116.5521 L215.702,116.7277 L208.7933,124.4608 L203.2518,133.2233 L197.265,141.6506 L189.8143,148.9756 L184.3039,157.7615 L177.7012,165.725 L171.5332,174.0158 L165.6674,182.5342 L158.7602,190.2684 L153.3115,199.1009 " fill="none" style="stroke:#333333;stroke-width:3.125;"/><polygon fill="#333333" points="149.5521,204.0938,149.5875,204.1575,151.2758,202.9714,153.1718,202.1592,155.0002,201.2252,156.606,199.8908,158.5199,199.1107,158.5161,199.084,157.3322,199.1285,156.1673,199.3078,155.0156,199.5807,153.8184,199.5308,152.685,199.933,152.8753,199.9598,152.3038,198.7355,152.288,197.5895,152.3401,196.453,151.9976,195.2609,151.8627,194.0981,151.8858,194.1034,151.3897,196.0947,150.9988,198.1103,150.5572,200.1142,150.2123,202.1404,149.5521,204.0938" style="stroke:#333333;stroke-width:3.125;"/><text fill="#FFFFFF" filter="url(#b1f2jmm2blc43o0)" font-family="Segoe Print" font-size="12.5" lengthAdjust="spacing" textLength="56.25" x="197.9167" y="165.1549">changes</text></g><!--link Environment to Reward--><g id="link_Environment_Reward"><path d="M141.9688,279.4792 L142.2246,279.6198 L146.4944,288.3515 L152.2639,297.9077 L157.5451,307.1954 L161.2203,315.6002 L167.0239,325.1752 L171.6294,334.0914 L176.7117,343.2698 L182.1254,352.6303 L187.2383,361.8256 " fill="none" style="stroke:#333333;stroke-width:3.125;"/><polygon fill="#333333" points="190.25,367.3021,190.3227,367.3082,189.9334,365.2454,189.9703,363.2187,189.8684,361.1803,189.31,359.1031,189.3835,357.0795,189.3576,357.072,188.9127,358.17,188.5984,359.3059,188.3749,360.4682,187.8384,361.5396,187.7403,362.7383,187.7939,362.9229,186.5475,362.1995,185.4576,362.0151,184.3868,361.8964,183.2049,361.3951,182.0815,361.0951,182.0958,361.1139,183.7085,362.3276,185.3864,363.6272,187.0328,364.8854,188.7393,366.2226,190.25,367.3021" style="stroke:#333333;stroke-width:3.125;"/><text fill="#FFFFFF" filter="url(#b1f2jmm2blc43o0)" font-family="Segoe Print" font-size="12.5" lengthAdjust="spacing" textLength="50" x="178.125" y="328.2903">creates</text></g><!--link Reward to Agent--><g id="link_Reward_Agent"><path d="M230.3333,367.2708 L230.4223,367.3102 L231.5032,364.1523 L233.1058,361.2253 L234.5385,358.223 L235.4125,354.9737 L237.0599,352.0664 L237.0261,352.0541 L238.0039,348.8817 L239.1523,345.771 L240.4193,342.7033 L241.2777,339.4876 L242.7083,336.4792 L242.9544,336.5509 L243.18,333.8203 L244.124,331.2993 L245.1557,328.8038 L245.6774,326.1595 L246.4673,323.5935 L246.4978,323.6015 L247.4041,319.9487 L248.4496,316.3322 L249.4279,312.6982 L250.5343,309.0977 L251.2231,305.388 L251.5253,305.4604 L252.0437,303.3119 L252.3672,301.1167 L252.976,298.9899 L253.5981,296.8662 L253.7967,294.6411 L253.4709,294.5682 L254.625,292.3786 L254.7063,289.9488 L255.6032,287.7016 L255.6601,285.2664 L256.4055,282.9853 L256.3745,282.9788 L257.2563,280.57 L257.4126,278.0109 L257.997,275.5404 L258.6174,273.0774 L258.9784,270.5607 L259.1678,270.5965 L259.4698,267.9498 L260.0953,265.3642 L260.1974,262.6798 L261.0803,260.1428 L261.444,257.5078 L261.6943,257.5501 L262.1043,254.8339 L262.6387,252.1387 L262.5957,249.346 L262.9759,246.6248 L263.731,243.9669 L263.4464,243.9251 L264.1115,241.1852 L264.4558,238.3982 L265.2654,235.6795 L265.2807,232.8442 L265.7681,230.0782 L265.6105,230.059 L266.2162,227.2718 L266.148,224.4025 L266.5591,221.5915 L267.4391,218.8377 L267.484,215.9821 L267.6849,216.0009 L268.0873,213.1812 L267.8651,210.303 L268.4252,207.498 L268.8149,204.6771 L268.8075,201.819 L268.5892,201.8057 L268.9351,198.9983 L269.2095,196.1866 L269.6244,193.3834 L269.4932,190.547 L269.6671,187.7291 L269.8812,187.7341 L269.4756,184.9479 L269.4834,182.1713 L270.0948,179.4088 L269.5948,176.6203 L269.9916,173.8528 L270.2271,173.8577 L270.0308,171.1503 L269.7548,168.4412 L269.6587,165.7359 L269.9784,163.0392 L269.7096,160.3303 L269.5714,160.3202 L269.791,157.7448 L269.0706,155.1002 L269.4189,152.5344 L269.1655,149.9242 L268.75,147.3021 L268.8626,147.3153 L268.4815,144.8303 L268.5037,142.3925 L268.1615,139.9121 L267.667,137.4137 L267.2989,134.9302 L267.4212,134.9516 L266.8056,132.433 L266.7577,130.0135 L266.0677,127.4819 L265.6418,124.9965 L265.1291,122.4959 " fill="none" style="stroke:#333333;stroke-width:3.125;"/><polygon fill="#333333" points="263.9167,116.3646,263.9878,116.3807,263.3226,118.3338,263.0746,120.3815,262.6907,122.3984,261.86,124.314,261.6478,126.3698,261.6254,126.3548,262.1806,125.3082,262.8489,124.3374,263.5957,123.4191,264.0717,122.3195,264.927,121.474,265.034,121.6337,265.7844,121.948,266.8471,122.7286,267.948,123.5661,268.8271,124.0726,269.8228,124.7532,269.8422,124.7668,268.6325,123.0691,267.5111,121.4334,266.347,119.7678,265.2642,118.1594,263.9167,116.3646" style="stroke:#333333;stroke-width:3.125;"/><text fill="#FFFFFF" filter="url(#b1f2jmm2blc43o0)" font-family="Segoe Print" font-size="12.5" lengthAdjust="spacing" textLength="66.6667" x="273.9583" y="246.7278">learn from</text></g><!--SRC=[PP3BQiCm44Nt-eeftJZGh4fI8qeWByWw-OAfFBMDBScCb8GGyk-LP9kwpMeMzzoZqRpuYZI1QyYhwYQ4QshJ8QE6ROlERL0r9TkpARQsjGolozqo_rXCC1Mn0s51_0Hl5lbxlXD290ZM9HaFTm60ocVEeoS9fpXc4jRArzQ4h2Laap5TaGi9npJVmD3rD2s8nsZTcqlDrkZHxJnr6IRRQ9t55dL7SkVM_pPxTohLeOmwh9xYVj7vVFL7Bk7pA_nG3ZTOgGfDIKvCcTWPj4yuKrZSYI6EPF_EVp0T0BxPwXy0]--></g></svg>