<?xml version="1.0" encoding="us-ascii" standalone="no"?><svg xmlns="http://www.w3.org/2000/svg" xmlns:xlink="http://www.w3.org/1999/xlink" contentStyleType="text/css" height="191.6667px" preserveAspectRatio="none" style="width:898px;height:191px;" version="1.1" viewBox="0 0 898 191" width="898.9583px" zoomAndPan="magnify"><defs><filter height="1" id="b13jvof8ppcwc30" width="1" x="0" y="0"><feFlood flood-color="#6D6875" result="flood"/><feComposite in="SourceGraphic" in2="flood" operator="over"/></filter></defs><g><!--class Agent--><g id="elem_Agent"><polygon fill="#6D6875" points="21.875,81.6135,21.875,81.8325,32.3223,81.182,42.7696,81.8149,53.2169,82.0299,63.6642,80.8704,74.1115,81.5326,84.5588,81.1693,95.0061,81.2141,105.4534,81.5425,115.9007,80.8934,126.348,82.1903,136.7953,80.957,147.2426,81.4075,157.69,82.0635,168.1373,81.5242,178.5846,81.6846,189.0319,81.5803,199.4792,81.7995,209.9265,81.8626,220.3738,82.2236,230.8211,82.3126,241.2684,82.3211,251.7157,81.8788,262.163,82.0964,272.6103,82.345,283.0576,80.8623,293.5049,82.3203,303.9522,81.3047,314.3995,82.1696,324.8468,81.0979,335.2941,81.5422,345.7414,82.386,356.1887,81.5628,366.636,81.7232,377.0833,81.6135,377.1283,81.7222,377.7279,81.9911,378.2613,82.1004,378.8893,82.4379,379.3643,82.4062,380.0296,82.8339,380.1208,82.8717,380.4495,83.496,380.6604,84.0715,380.9585,84.6832,380.851,85.1268,381.25,85.7802,380.5706,85.7802,380.6027,95.7818,381.1887,105.7835,381.0453,115.7851,381.9598,125.7867,381.068,135.7883,380.8927,145.79,381.4878,155.7916,380.5554,165.7932,381.25,175.7949,381.0835,175.7259,381.2141,176.4703,380.9016,177.0313,380.7534,177.6602,380.1705,178.1091,380.0296,178.7411,380.072,178.8435,379.5188,179.1746,378.7883,179.0777,378.2491,179.4426,377.6893,179.7579,377.0833,179.9615,377.0833,180.6404,366.636,179.9572,356.1887,180.4434,345.7414,179.3847,335.2941,179.256,324.8468,180.4861,314.3995,179.2147,303.9522,180.4917,293.5049,180.1768,283.0576,179.6824,272.6103,179.593,262.163,180.4394,251.7157,179.6497,241.2684,180.578,230.8211,179.3857,220.3738,180.6047,209.9265,180.466,199.4792,180.2167,189.0319,180.0107,178.5846,180.7184,168.1373,180.6007,157.69,180.1378,147.2426,180.2409,136.7953,179.8258,126.348,180.7078,115.9007,180.1228,105.4534,180.1413,95.0061,179.3278,84.5588,179.5394,74.1115,180.5144,63.6642,180.4092,53.2169,179.9168,42.7696,179.6259,32.3223,179.7335,21.875,179.9615,21.7838,179.7414,21.3409,179.8505,20.7948,179.7106,20.1772,179.3982,19.6103,179.2081,18.9287,178.7411,18.8849,178.723,18.7126,178.1635,18.3162,177.5111,18.2876,177.0111,18.0316,176.4169,17.7083,175.7949,18.2837,175.7949,17.4691,165.7932,17.5683,155.7916,18.1703,145.79,18.2993,135.7883,17.1744,125.7867,17.5064,115.7851,17.8638,105.7835,17.072,95.7818,17.7083,85.7802,17.8217,85.8272,18.0352,85.2252,18.1642,84.5883,18.4862,84.0313,18.9184,83.52,18.9287,82.8339,18.8871,82.7336,19.5598,82.6909,20.1452,82.4374,20.7119,82.1388,21.3045,81.9028,21.875,81.6135" style="stroke:#333333;stroke-width:1.0416666666666667;"/><polygon fill="#B5838D" points="21.875,81.6135,21.875,81.8325,32.3223,81.182,42.7696,81.8149,53.2169,82.0299,63.6642,80.8704,74.1115,81.5326,84.5588,81.1693,95.0061,81.2141,105.4534,81.5425,115.9007,80.8934,126.348,82.1903,136.7953,80.957,147.2426,81.4075,157.69,82.0635,168.1373,81.5242,178.5846,81.6846,189.0319,81.5803,199.4792,81.7995,209.9265,81.8626,220.3738,82.2236,230.8211,82.3126,241.2684,82.3211,251.7157,81.8788,262.163,82.0964,272.6103,82.345,283.0576,80.8623,293.5049,82.3203,303.9522,81.3047,314.3995,82.1696,324.8468,81.0979,335.2941,81.5422,345.7414,82.386,356.1887,81.5628,366.636,81.7232,377.0833,81.6135,377.1283,81.7222,377.7279,81.9911,378.2613,82.1004,378.8893,82.4379,379.3643,82.4062,380.0296,82.8339,380.1208,82.8717,380.4495,83.496,380.6604,84.0715,380.9585,84.6832,380.851,85.1268,381.25,85.7802,381.0235,85.7802,381.0342,90.9479,381.2296,96.1155,381.1818,101.2831,381.4866,106.4508,381.25,111.6184,381.194,111.5952,380.8959,112.1621,380.8351,112.8273,380.3039,113.2976,380.1072,113.9065,380.0296,114.5647,380.1158,114.7729,379.4982,114.9485,378.9487,115.2885,378.2191,115.1937,377.715,115.6434,377.0833,115.7851,377.0833,116.4001,366.636,115.293,356.1887,115.6852,345.7414,115.9163,335.2941,116.464,324.8468,115.7807,314.3995,116.2669,303.9522,115.2082,293.5049,115.0796,283.0576,116.3097,272.6103,115.0383,262.163,116.3153,251.7157,116.0003,241.2684,115.506,230.8211,115.4166,220.3738,116.263,209.9265,115.4733,199.4792,116.4016,189.0319,115.2093,178.5846,116.4282,168.1373,116.2896,157.69,116.0403,147.2426,115.8343,136.7953,116.542,126.348,116.4242,115.9007,115.9614,105.4534,116.0645,95.0061,115.6494,84.5588,116.5314,74.1115,115.9464,63.6642,115.9649,53.2169,115.1514,42.7696,115.363,32.3223,116.338,21.875,115.7851,21.9321,115.923,21.28,115.5272,20.6537,115.1936,20.0781,114.9826,19.4268,114.5887,18.9287,114.5647,19.0618,114.6198,18.9219,114.0737,18.6094,113.4561,18.4194,112.8893,17.9086,112.1895,17.7083,111.6184,17.7386,111.6184,17.5738,106.4508,17.807,101.2831,17.794,96.1155,17.9001,90.9479,17.7083,85.7802,17.6347,85.7497,17.9093,85.1731,18.3387,84.6606,18.6226,84.0878,18.5202,83.3551,18.9287,82.8339,18.903,82.7717,19.5378,82.6377,20.0261,82.1498,20.7434,82.2151,21.32,81.9404,21.875,81.6135" style="stroke:#B5838D;stroke-width:1.0416666666666667;"/><polygon fill="#B5838D" points="17.7083,111.6184,17.7083,111.8374,28.0952,111.1868,38.4821,111.8198,48.869,112.0348,59.256,110.8753,69.6429,111.5375,80.0298,111.1742,90.4167,111.2189,100.8036,111.5474,111.1905,110.8982,121.5774,112.1951,131.9643,110.9619,142.3512,111.4124,152.7381,112.0684,163.125,111.5291,173.5119,111.6895,183.8988,111.5851,194.2857,111.8044,204.6726,111.8675,215.0595,112.2285,225.4464,112.3174,235.8333,112.326,246.2202,111.8837,256.6071,112.1013,266.994,112.3499,277.381,110.8672,287.7679,112.3252,298.1548,111.3096,308.5417,112.1745,318.9286,111.1028,329.3155,111.5471,339.7024,112.3909,350.0893,111.5677,360.4762,111.7281,370.8631,111.9712,381.25,111.6184,381.3945,111.6184,381.2486,112.4518,381.3497,113.2851,381.0512,114.1184,381.3487,114.9518,381.25,115.7851,381.25,116.3561,370.8631,116.2481,360.4762,116.4237,350.0893,115.2819,339.7024,115.1057,329.3155,115.1378,318.9286,115.7238,308.5417,115.5804,298.1548,116.4949,287.7679,115.6031,277.381,115.4277,266.994,116.0229,256.6071,115.0905,246.2202,115.2443,235.8333,116.4611,225.4464,116.2389,215.0595,116.5502,204.6726,115.4499,194.2857,116.1176,183.8988,116.4001,173.5119,115.293,163.125,115.6852,152.7381,115.9163,142.3512,116.464,131.9643,115.7807,121.5774,116.2669,111.1905,115.2082,100.8036,115.0796,90.4167,116.3097,80.0298,115.0383,69.6429,116.3153,59.256,116.0003,48.869,115.506,38.4821,115.4166,28.0952,116.263,17.7083,115.7851,17.6044,115.7851,17.9138,114.9518,17.5164,114.1184,17.9227,113.2851,17.8765,112.4518,17.7083,111.6184" style="stroke:#B5838D;stroke-width:1.0416666666666667;"/><polygon fill="none" points="21.875,81.6135,21.875,81.8325,32.3223,81.182,42.7696,81.8149,53.2169,82.0299,63.6642,80.8704,74.1115,81.5326,84.5588,81.1693,95.0061,81.2141,105.4534,81.5425,115.9007,80.8934,126.348,82.1903,136.7953,80.957,147.2426,81.4075,157.69,82.0635,168.1373,81.5242,178.5846,81.6846,189.0319,81.5803,199.4792,81.7995,209.9265,81.8626,220.3738,82.2236,230.8211,82.3126,241.2684,82.3211,251.7157,81.8788,262.163,82.0964,272.6103,82.345,283.0576,80.8623,293.5049,82.3203,303.9522,81.3047,314.3995,82.1696,324.8468,81.0979,335.2941,81.5422,345.7414,82.386,356.1887,81.5628,366.636,81.7232,377.0833,81.6135,377.1283,81.7222,377.7279,81.9911,378.2613,82.1004,378.8893,82.4379,379.3643,82.4062,380.0296,82.8339,380.1208,82.8717,380.4495,83.496,380.6604,84.0715,380.9585,84.6832,380.851,85.1268,381.25,85.7802,380.5706,85.7802,380.6027,95.7818,381.1887,105.7835,381.0453,115.7851,381.9598,125.7867,381.068,135.7883,380.8927,145.79,381.4878,155.7916,380.5554,165.7932,381.25,175.7949,381.0835,175.7259,381.2141,176.4703,380.9016,177.0313,380.7534,177.6602,380.1705,178.1091,380.0296,178.7411,380.072,178.8435,379.5188,179.1746,378.7883,179.0777,378.2491,179.4426,377.6893,179.7579,377.0833,179.9615,377.0833,180.6404,366.636,179.9572,356.1887,180.4434,345.7414,179.3847,335.2941,179.256,324.8468,180.4861,314.3995,179.2147,303.9522,180.4917,293.5049,180.1768,283.0576,179.6824,272.6103,179.593,262.163,180.4394,251.7157,179.6497,241.2684,180.578,230.8211,179.3857,220.3738,180.6047,209.9265,180.466,199.4792,180.2167,189.0319,180.0107,178.5846,180.7184,168.1373,180.6007,157.69,180.1378,147.2426,180.2409,136.7953,179.8258,126.348,180.7078,115.9007,180.1228,105.4534,180.1413,95.0061,179.3278,84.5588,179.5394,74.1115,180.5144,63.6642,180.4092,53.2169,179.9168,42.7696,179.6259,32.3223,179.7335,21.875,179.9615,21.7838,179.7414,21.3409,179.8505,20.7948,179.7106,20.1772,179.3982,19.6103,179.2081,18.9287,178.7411,18.8849,178.723,18.7126,178.1635,18.3162,177.5111,18.2876,177.0111,18.0316,176.4169,17.7083,175.7949,18.2837,175.7949,17.4691,165.7932,17.5683,155.7916,18.1703,145.79,18.2993,135.7883,17.1744,125.7867,17.5064,115.7851,17.8638,105.7835,17.072,95.7818,17.7083,85.7802,17.8217,85.8272,18.0352,85.2252,18.1642,84.5883,18.4862,84.0313,18.9184,83.52,18.9287,82.8339,18.8871,82.7336,19.5598,82.6909,20.1452,82.4374,20.7119,82.1388,21.3045,81.9028,21.875,81.6135" style="stroke:#333333;stroke-width:1.0416666666666667;"/><polygon fill="none" points="182.87,101.2331,181.3431,103.3194,179.5371,106.3752,176.9542,108.4345,174.2399,109.5607,172.0758,109.6584,169.2942,108.25,166.6697,107.3299,164.6776,105.4618,163.6326,103.3232,163.0129,101.6203,162.4058,99.396,161.4204,97.482,162.1777,95.6131,162.8411,93.566,165.3308,91.9469,167.0824,89.8462,169.2504,89.1486,171.8278,88.5478,175.133,88.9048,176.9433,89.7585,179.048,90.1455,181.6072,92.7675,182.4993,95.5354,182.8869,97.4241,182.4479,100.5363" style="stroke:#2E2E2E;stroke-width:1.0416666666666667;"/><path d="M174.3327,95.3139 C173.6491,94.9884 173.2096,94.8907 172.5586,94.8907 C170.638,94.8907 169.1569,96.4044 169.1569,98.4063 L169.1569,99.2364 C169.1569,101.1407 170.7194,102.5242 172.8353,102.5242 C173.7305,102.5242 174.5931,102.2963 175.1302,101.8894 C175.5697,101.5965 175.7975,101.2709 175.7975,100.978 C175.7975,100.6524 175.5046,100.3595 175.179,100.3595 C175.0163,100.3595 174.8698,100.4246 174.7233,100.5548 C174.3815,100.9129 174.3815,100.9129 174.2513,100.978 C173.9421,101.1733 173.4375,101.2709 172.8678,101.2709 C171.3704,101.2709 170.4102,100.4571 170.4102,99.2039 L170.4102,98.4063 C170.4102,97.088 171.3379,96.1277 172.6074,96.1277 C173.0306,96.1277 173.4863,96.2416 173.8281,96.4369 C174.1862,96.6323 174.3164,96.795 174.3815,97.088 C174.4303,97.3972 174.4466,97.4786 174.5443,97.5763 C174.6419,97.6902 174.821,97.7553 174.9837,97.7553 C175.1953,97.7553 175.3743,97.6576 175.5046,97.4949 C175.5859,97.381 175.6185,97.2507 175.6185,96.9252 L175.6185,95.8836 C175.6185,95.5743 175.6022,95.4767 175.5208,95.3627 C175.4069,95.1674 175.2116,95.0535 174.9837,95.0535 C174.7721,95.0535 174.6257,95.1349 174.4629,95.3627 L174.3327,95.3139 Z " fill="#FFFFFF"/><text fill="#000000" font-family="Segoe Print" font-size="11.4583" lengthAdjust="spacing" textLength="35.4167" x="197.3958" y="102.6661">Agent</text><path d="M18.75,115.7851 L18.75,116.077 L29.0774,115.2096 L39.4048,116.0535 L49.7321,116.3402 L60.0595,114.7943 L70.3869,115.6772 L80.7143,115.1927 L91.0417,115.2525 L101.369,115.6904 L111.6964,114.8249 L122.0238,116.554 L132.3512,114.9097 L142.6786,115.5104 L153.006,116.385 L163.3333,115.666 L173.6607,115.8799 L183.9881,115.7407 L194.3155,116.033 L204.6429,116.1172 L214.9702,116.5985 L225.2976,116.7171 L235.625,116.7285 L245.9524,116.1387 L256.2798,116.429 L266.6071,116.7604 L276.9345,114.7834 L287.2619,116.7275 L297.5893,115.3733 L307.9167,116.5265 L318.244,115.0976 L328.5714,115.69 L338.8988,116.8151 L349.2262,115.7174 L359.5536,115.9313 L369.881,116.2554 L380.2083,115.7851 " fill="#6D6875" style="stroke:#333333;stroke-width:1.0416666666666667;"/><path d="M18.75,124.1184 L18.75,124.4103 L29.0774,123.543 L39.4048,124.3869 L49.7321,124.6735 L60.0595,123.1276 L70.3869,124.0105 L80.7143,123.5261 L91.0417,123.5858 L101.369,124.0238 L111.6964,123.1582 L122.0238,124.8874 L132.3512,123.243 L142.6786,123.8437 L153.006,124.7184 L163.3333,123.9993 L173.6607,124.2132 L183.9881,124.0741 L194.3155,124.3664 L204.6429,124.4506 L214.9702,124.9319 L225.2976,125.0504 L235.625,125.0618 L245.9524,124.4721 L256.2798,124.7623 L266.6071,125.0937 L276.9345,123.1168 L287.2619,125.0608 L297.5893,123.7066 L307.9167,124.8598 L318.244,123.4309 L328.5714,124.0233 L338.8988,125.1484 L349.2262,124.0507 L359.5536,124.2647 L369.881,124.5887 L380.2083,124.1184 " fill="#6D6875" style="stroke:#333333;stroke-width:1.0416666666666667;"/><polygon fill="none" points="32.3089,142.4852,31.8509,143.1111,31.3091,144.0278,30.5342,144.6456,29.7199,144.9834,29.0706,145.0128,28.2362,144.5902,27.4488,144.3142,26.8512,143.7538,26.5377,143.1122,26.3518,142.6013,26.1697,141.934,25.874,141.3598,26.1012,140.7992,26.3002,140.185,27.0471,139.6993,27.5726,139.0691,28.223,138.8598,28.9962,138.6796,29.9878,138.7867,30.5309,139.0428,31.1623,139.1589,31.9301,139.9455,32.1977,140.7759,32.314,141.3425,32.1823,142.2761" style="stroke:#2E2E2E;stroke-width:1.0416666666666667;"/><text fill="#FFFFFF" font-family="Segoe Print" font-size="11.4583" lengthAdjust="spacing" textLength="201.0417" x="42.7083" y="144.1293">doSomething(state: State): Action</text><polygon fill="none" points="32.3089,166.24,31.8509,166.8659,31.3091,167.7827,30.5342,168.4005,29.7199,168.7383,29.0706,168.7676,28.2362,168.3451,27.4488,168.0691,26.8512,167.5087,26.5377,166.8671,26.3518,166.3562,26.1697,165.6889,25.874,165.1147,26.1012,164.5541,26.3002,163.9399,27.0471,163.4542,27.5726,162.824,28.223,162.6147,28.9962,162.4345,29.9878,162.5416,30.5309,162.7977,31.1623,162.9138,31.9301,163.7004,32.1977,164.5308,32.314,165.0973,32.1823,166.031" style="stroke:#2E2E2E;stroke-width:1.0416666666666667;"/><text fill="#FFFFFF" font-family="Segoe Print" font-size="11.4583" lengthAdjust="spacing" textLength="327.0833" x="42.7083" y="167.8842">learn(reward: Reward, newState: State, done: boolean)</text></g><!--class Environment--><g id="elem_Environment"><polygon fill="#6D6875" points="487.5,81.6135,487.5,81.8325,497.6687,81.182,507.8373,81.8149,518.006,82.0299,528.1746,80.8704,538.3433,81.5326,548.5119,81.1693,558.6806,81.2141,568.8492,81.5425,579.0179,80.8934,589.1865,82.1903,599.3552,80.957,609.5238,81.4075,619.6925,82.0635,629.8611,81.5242,640.0298,81.6846,650.1984,81.5803,660.3671,81.7995,670.5357,81.8626,680.7044,82.2236,690.873,82.3126,701.0417,81.6135,701.1319,81.8314,701.6648,81.9393,702.2818,82.2504,702.9027,82.571,703.3029,82.3585,703.9879,82.8339,704.2056,82.9241,704.1369,83.3838,704.6473,84.0834,704.5614,84.5359,704.9423,85.1819,705.2083,85.7802,705.9808,85.7802,705.1576,95.7818,705.318,105.7835,705.5611,115.7851,705.6419,125.7867,705.2043,135.7883,705.5075,145.79,704.6121,155.7916,705.5046,165.7932,705.2083,175.7949,705.3842,175.8677,705.1069,176.4432,704.9168,177.0548,704.3211,177.4984,704.0228,178.0652,703.9879,178.7411,703.9054,178.5418,703.3909,178.9663,702.7833,179.1662,702.3107,179.692,701.6077,179.6614,701.0417,179.9615,701.0417,179.6042,690.873,180.1993,680.7044,179.2669,670.5357,179.4208,660.3671,180.6375,650.1984,180.4153,640.0298,180.7266,629.8611,179.6263,619.6925,180.294,609.5238,180.5765,599.3552,179.4694,589.1865,179.8617,579.0179,180.0928,568.8492,180.6404,558.6806,179.9572,548.5119,180.4434,538.3433,179.3847,528.1746,179.256,518.006,180.4861,507.8373,179.2147,497.6687,180.4917,487.5,179.9615,487.5275,180.0278,486.8751,179.6315,486.2745,179.3599,485.7932,179.3765,485.1032,178.8892,484.5537,178.7411,484.7436,178.8198,484.1323,178.0784,484.2636,177.6447,483.9768,177.0377,483.656,176.4167,483.3333,175.7949,483.3825,175.7949,484.0902,165.7932,483.9725,155.7916,483.5096,145.79,483.6127,135.7883,483.1976,125.7867,484.0796,115.7851,483.4947,105.7835,483.5131,95.7818,483.3333,85.7802,483.1382,85.6994,483.4474,85.1371,483.9917,84.6722,484.2034,84.0695,484.2959,83.4175,484.5537,82.8339,484.5109,82.7306,485.1139,82.5196,485.6411,82.1257,486.3766,82.2347,487.009,82.0949,487.5,81.6135" style="stroke:#333333;stroke-width:1.0416666666666667;"/><polygon fill="#B5838D" points="487.5,81.6135,487.5,81.8325,497.6687,81.182,507.8373,81.8149,518.006,82.0299,528.1746,80.8704,538.3433,81.5326,548.5119,81.1693,558.6806,81.2141,568.8492,81.5425,579.0179,80.8934,589.1865,82.1903,599.3552,80.957,609.5238,81.4075,619.6925,82.0635,629.8611,81.5242,640.0298,81.6846,650.1984,81.5803,660.3671,81.7995,670.5357,81.8626,680.7044,82.2236,690.873,82.3126,701.0417,81.6135,701.1319,81.8314,701.6648,81.9393,702.2818,82.2504,702.9027,82.571,703.3029,82.3585,703.9879,82.8339,704.2056,82.9241,704.1369,83.3838,704.6473,84.0834,704.5614,84.5359,704.9423,85.1819,705.2083,85.7802,705.4658,85.7802,705.1914,90.9479,705.2449,96.1155,705.3259,101.2831,705.3529,106.4508,705.2083,111.6184,705.2071,111.6179,705.0564,112.2458,704.5366,112.7209,704.5673,113.424,704.4079,114.0483,703.9879,114.5647,704.047,114.7073,703.4801,115.0054,702.7452,114.8979,702.1335,115.0877,701.5484,115.3417,701.0417,115.7851,701.0417,115.7238,690.873,115.5804,680.7044,116.4949,670.5357,115.6031,660.3671,115.4277,650.1984,116.0229,640.0298,115.0905,629.8611,115.2443,619.6925,116.4611,609.5238,116.2389,599.3552,116.5502,589.1865,115.4499,579.0179,116.1176,568.8492,116.4001,558.6806,115.293,548.5119,115.6852,538.3433,115.9163,528.1746,116.464,518.006,115.7807,507.8373,116.2669,497.6687,115.2082,487.5,115.7851,487.41,115.5678,486.9777,115.7026,486.2262,115.0669,485.7999,115.2161,485.1704,114.8751,484.5537,114.5647,484.4678,114.5291,484.1962,113.9284,484.2127,113.4471,483.7255,112.7572,483.7673,112.2863,483.3333,111.6184,483.1414,111.6184,483.5477,106.4508,483.5015,101.2831,483.4184,96.1155,483.3497,90.9479,483.3333,85.7802,483.5664,85.8768,483.7742,85.2725,483.8758,84.6242,484.1516,84.0481,484.2679,83.4059,484.5537,82.8339,484.6489,83.0638,485.1636,82.6395,485.7552,82.4011,486.2407,81.9065,486.8569,81.7276,487.5,81.6135" style="stroke:#B5838D;stroke-width:1.0416666666666667;"/><polygon fill="#B5838D" points="483.3333,111.6184,483.3333,111.8374,493.8988,111.1868,504.4643,111.8198,515.0298,112.0348,525.5952,110.8753,536.1607,111.5375,546.7262,111.1742,557.2917,111.2189,567.8571,111.5474,578.4226,110.8982,588.9881,112.1951,599.5536,110.9619,610.119,111.4124,620.6845,112.0684,631.25,111.5291,641.8155,111.6895,652.381,111.5851,662.9464,111.8044,673.5119,111.8675,684.0774,112.2285,694.6429,112.3174,705.2083,111.6184,705.4442,111.6184,705.2967,112.4518,705.3693,113.2851,705.4522,114.1184,704.9579,114.9518,705.2083,115.7851,705.2083,116.4919,694.6429,115.4762,684.0774,116.3411,673.5119,115.2694,662.9464,115.7137,652.381,116.5576,641.8155,115.7343,631.25,115.8948,620.6845,116.1378,610.119,116.2187,599.5536,115.781,588.9881,116.0843,578.4226,115.1888,567.8571,116.0813,557.2917,116.3561,546.7262,116.2481,536.1607,116.4237,525.5952,115.2819,515.0298,115.1057,504.4643,115.1378,493.8988,115.7238,483.3333,115.7851,483.2651,115.7851,483.5699,114.9518,483.2727,114.1184,483.2142,113.2851,483.4126,112.4518,483.3333,111.6184" style="stroke:#B5838D;stroke-width:1.0416666666666667;"/><polygon fill="none" points="487.5,81.6135,487.5,81.8325,497.6687,81.182,507.8373,81.8149,518.006,82.0299,528.1746,80.8704,538.3433,81.5326,548.5119,81.1693,558.6806,81.2141,568.8492,81.5425,579.0179,80.8934,589.1865,82.1903,599.3552,80.957,609.5238,81.4075,619.6925,82.0635,629.8611,81.5242,640.0298,81.6846,650.1984,81.5803,660.3671,81.7995,670.5357,81.8626,680.7044,82.2236,690.873,82.3126,701.0417,81.6135,701.1319,81.8314,701.6648,81.9393,702.2818,82.2504,702.9027,82.571,703.3029,82.3585,703.9879,82.8339,704.2056,82.9241,704.1369,83.3838,704.6473,84.0834,704.5614,84.5359,704.9423,85.1819,705.2083,85.7802,705.9808,85.7802,705.1576,95.7818,705.318,105.7835,705.5611,115.7851,705.6419,125.7867,705.2043,135.7883,705.5075,145.79,704.6121,155.7916,705.5046,165.7932,705.2083,175.7949,705.3842,175.8677,705.1069,176.4432,704.9168,177.0548,704.3211,177.4984,704.0228,178.0652,703.9879,178.7411,703.9054,178.5418,703.3909,178.9663,702.7833,179.1662,702.3107,179.692,701.6077,179.6614,701.0417,179.9615,701.0417,179.6042,690.873,180.1993,680.7044,179.2669,670.5357,179.4208,660.3671,180.6375,650.1984,180.4153,640.0298,180.7266,629.8611,179.6263,619.6925,180.294,609.5238,180.5765,599.3552,179.4694,589.1865,179.8617,579.0179,180.0928,568.8492,180.6404,558.6806,179.9572,548.5119,180.4434,538.3433,179.3847,528.1746,179.256,518.006,180.4861,507.8373,179.2147,497.6687,180.4917,487.5,179.9615,487.5275,180.0278,486.8751,179.6315,486.2745,179.3599,485.7932,179.3765,485.1032,178.8892,484.5537,178.7411,484.7436,178.8198,484.1323,178.0784,484.2636,177.6447,483.9768,177.0377,483.656,176.4167,483.3333,175.7949,483.3825,175.7949,484.0902,165.7932,483.9725,155.7916,483.5096,145.79,483.6127,135.7883,483.1976,125.7867,484.0796,115.7851,483.4947,105.7835,483.5131,95.7818,483.3333,85.7802,483.1382,85.6994,483.4474,85.1371,483.9917,84.6722,484.2034,84.0695,484.2959,83.4175,484.5537,82.8339,484.5109,82.7306,485.1139,82.5196,485.6411,82.1257,486.3766,82.2347,487.009,82.0949,487.5,81.6135" style="stroke:#333333;stroke-width:1.0416666666666667;"/><polygon fill="none" points="557.87,101.2331,556.3431,103.3194,554.5371,106.3752,551.9542,108.4345,549.2399,109.5607,547.0758,109.6584,544.2942,108.25,541.6697,107.3299,539.6776,105.4618,538.6326,103.3232,538.0129,101.6203,537.4058,99.396,536.4204,97.482,537.1777,95.6131,537.8411,93.566,540.3308,91.9469,542.0824,89.8462,544.2504,89.1486,546.8278,88.5478,550.133,88.9048,551.9433,89.7585,554.048,90.1455,556.6072,92.7675,557.4993,95.5354,557.8869,97.4241,557.4479,100.5363" style="stroke:#2E2E2E;stroke-width:1.0416666666666667;"/><path d="M549.3327,95.3139 C548.6491,94.9884 548.2096,94.8907 547.5586,94.8907 C545.638,94.8907 544.1569,96.4044 544.1569,98.4063 L544.1569,99.2364 C544.1569,101.1407 545.7194,102.5242 547.8353,102.5242 C548.7305,102.5242 549.5931,102.2963 550.1302,101.8894 C550.5697,101.5965 550.7975,101.2709 550.7975,100.978 C550.7975,100.6524 550.5046,100.3595 550.179,100.3595 C550.0163,100.3595 549.8698,100.4246 549.7233,100.5548 C549.3815,100.9129 549.3815,100.9129 549.2513,100.978 C548.9421,101.1733 548.4375,101.2709 547.8678,101.2709 C546.3704,101.2709 545.4102,100.4571 545.4102,99.2039 L545.4102,98.4063 C545.4102,97.088 546.3379,96.1277 547.6074,96.1277 C548.0306,96.1277 548.4863,96.2416 548.8281,96.4369 C549.1862,96.6323 549.3164,96.795 549.3815,97.088 C549.4303,97.3972 549.4466,97.4786 549.5443,97.5763 C549.6419,97.6902 549.821,97.7553 549.9837,97.7553 C550.1953,97.7553 550.3743,97.6576 550.5046,97.4949 C550.5859,97.381 550.6185,97.2507 550.6185,96.9252 L550.6185,95.8836 C550.6185,95.5743 550.6022,95.4767 550.5208,95.3627 C550.4069,95.1674 550.2116,95.0535 549.9837,95.0535 C549.7721,95.0535 549.6257,95.1349 549.4629,95.3627 L549.3327,95.3139 Z " fill="#FFFFFF"/><text fill="#000000" font-family="Segoe Print" font-size="11.4583" lengthAdjust="spacing" textLength="75" x="572.3958" y="102.6661">Environment</text><path d="M484.375,115.7851 L484.375,116.077 L494.8413,115.2096 L505.3075,116.0535 L515.7738,116.3402 L526.2401,114.7943 L536.7063,115.6772 L547.1726,115.1927 L557.6389,115.2525 L568.1052,115.6904 L578.5714,114.8249 L589.0377,116.554 L599.504,114.9097 L609.9702,115.5104 L620.4365,116.385 L630.9028,115.666 L641.369,115.8799 L651.8353,115.7407 L662.3016,116.033 L672.7679,116.1172 L683.2341,116.5985 L693.7004,116.7171 L704.1667,115.7851 " fill="#6D6875" style="stroke:#333333;stroke-width:1.0416666666666667;"/><path d="M484.375,124.1184 L484.375,124.4103 L494.8413,123.543 L505.3075,124.3869 L515.7738,124.6735 L526.2401,123.1276 L536.7063,124.0105 L547.1726,123.5261 L557.6389,123.5858 L568.1052,124.0238 L578.5714,123.1582 L589.0377,124.8874 L599.504,123.243 L609.9702,123.8437 L620.4365,124.7184 L630.9028,123.9993 L641.369,124.2132 L651.8353,124.0741 L662.3016,124.3664 L672.7679,124.4506 L683.2341,124.9319 L693.7004,125.0504 L704.1667,124.1184 " fill="#6D6875" style="stroke:#333333;stroke-width:1.0416666666666667;"/><polygon fill="none" points="497.9339,142.4852,497.4759,143.1111,496.9341,144.0278,496.1592,144.6456,495.3449,144.9834,494.6956,145.0128,493.8612,144.5902,493.0738,144.3142,492.4762,143.7538,492.1627,143.1122,491.9768,142.6013,491.7947,141.934,491.499,141.3598,491.7262,140.7992,491.9252,140.185,492.6721,139.6993,493.1976,139.0691,493.848,138.8598,494.6212,138.6796,495.6128,138.7867,496.1559,139.0428,496.7873,139.1589,497.5551,139.9455,497.8227,140.7759,497.939,141.3425,497.8073,142.2761" style="stroke:#2E2E2E;stroke-width:1.0416666666666667;"/><text fill="#FFFFFF" font-family="Segoe Print" font-size="11.4583" lengthAdjust="spacing" textLength="79.1667" x="508.3333" y="144.1293">reset(): State</text><polygon fill="none" points="497.9339,166.24,497.4759,166.8659,496.9341,167.7827,496.1592,168.4005,495.3449,168.7383,494.6956,168.7676,493.8612,168.3451,493.0738,168.0691,492.4762,167.5087,492.1627,166.8671,491.9768,166.3562,491.7947,165.6889,491.499,165.1147,491.7262,164.5541,491.9252,163.9399,492.6721,163.4542,493.1976,162.824,493.848,162.6147,494.6212,162.4345,495.6128,162.5416,496.1559,162.7977,496.7873,162.9138,497.5551,163.7004,497.8227,164.5308,497.939,165.0973,497.8073,166.031" style="stroke:#2E2E2E;stroke-width:1.0416666666666667;"/><text fill="#FFFFFF" font-family="Segoe Print" font-size="11.4583" lengthAdjust="spacing" textLength="185.4167" x="508.3333" y="167.8842">step(action: Action): StepResult</text></g><!--class Reward--><g id="elem_Reward"><polygon fill="#6D6875" points="805.7292,105.051,805.7292,105.27,816.7411,104.6195,827.753,105.2524,838.7649,105.4674,849.7768,104.3079,860.7887,104.9701,871.8006,104.6068,882.8125,105.051,882.7615,104.928,883.3927,105.2733,883.8991,105.3174,884.6538,105.9609,885.0858,105.8252,885.7588,106.2714,885.6953,106.2452,886.1414,106.9181,886.2194,107.4385,886.5129,108.0483,886.7248,108.6242,886.9792,109.2177,887.0412,109.2177,887.0622,117.7187,887.1825,126.2197,887.2122,134.7206,887.215,143.2216,886.9792,151.7226,887.0608,151.7564,886.8838,152.3734,886.7163,152.9944,886.0156,153.3945,886.2205,154.1698,885.7588,154.6689,885.7194,154.5738,885.2405,155.0842,884.5145,154.9982,883.9819,155.3791,883.5003,155.8831,882.8125,155.8893,882.8125,155.8385,871.8006,155.9989,860.7887,156.242,849.7768,156.3228,838.7649,155.8852,827.753,156.1884,816.7411,155.293,805.7292,155.8893,805.767,155.9805,805.2128,155.821,804.6097,155.5437,804.0429,155.3537,803.308,154.758,802.7829,154.6689,802.5737,154.5822,802.3395,153.997,802.2758,153.4825,801.9876,152.875,802.0252,152.4024,801.5625,151.7226,801.5018,151.7226,801.4434,143.2216,801.6418,134.7206,801.331,126.2197,801.3822,117.7187,801.5625,109.2177,801.7707,109.3039,801.9463,108.6863,802.2863,108.1368,802.1915,107.4072,802.6412,106.9031,802.7829,106.2714,802.8613,106.4608,803.3094,105.8758,803.9487,105.7525,804.5674,105.5796,805.2265,105.5042,805.7292,105.051" style="stroke:#333333;stroke-width:1.0416666666666667;"/><polygon fill="#B5838D" points="805.7292,105.051,805.7292,105.27,816.7411,104.6195,827.753,105.2524,838.7649,105.4674,849.7768,104.3079,860.7887,104.9701,871.8006,104.6068,882.8125,105.051,882.7615,104.928,883.3927,105.2733,883.8991,105.3174,884.6538,105.9609,885.0858,105.8252,885.7588,106.2714,885.6953,106.2452,886.1414,106.9181,886.2194,107.4385,886.5129,108.0483,886.7248,108.6242,886.9792,109.2177,887.0412,109.2177,887.0622,114.3854,887.1825,119.553,887.2122,124.7206,887.215,129.8883,886.9792,135.0559,887.0608,135.0898,886.8838,135.7068,886.7163,136.3277,886.0156,136.7279,886.2205,137.5031,885.7588,138.0022,885.7194,137.9071,885.2405,138.4175,884.5145,138.3316,883.9819,138.7125,883.5003,139.2164,882.8125,139.2226,882.8125,139.1718,871.8006,139.3323,860.7887,139.5753,849.7768,139.6562,838.7649,139.2185,827.753,139.5218,816.7411,138.6263,805.7292,139.2226,805.767,139.3138,805.2128,139.1544,804.6097,138.877,804.0429,138.687,803.308,138.0913,802.7829,138.0022,802.5737,137.9155,802.3395,137.3304,802.2758,136.8159,801.9876,136.2083,802.0252,135.7357,801.5625,135.0559,801.5018,135.0559,801.4434,129.8883,801.6418,124.7206,801.331,119.553,801.3822,114.3854,801.5625,109.2177,801.7707,109.3039,801.9463,108.6863,802.2863,108.1368,802.1915,107.4072,802.6412,106.9031,802.7829,106.2714,802.8613,106.4608,803.3094,105.8758,803.9487,105.7525,804.5674,105.5796,805.2265,105.5042,805.7292,105.051" style="stroke:#B5838D;stroke-width:1.0416666666666667;"/><polygon fill="#B5838D" points="801.5625,135.0559,801.5625,135.2749,812.2396,134.6243,822.9167,135.2573,833.5938,135.4723,844.2708,134.3128,854.9479,134.975,865.625,134.6117,876.3021,134.6564,886.9792,135.0559,886.9555,135.0559,886.7391,135.8893,887.1714,136.7226,886.7603,137.5559,886.9105,138.3893,886.9792,139.2226,886.9792,139.6725,876.3021,139.1332,865.625,139.2937,854.9479,139.1893,844.2708,139.4086,833.5938,139.4717,822.9167,139.8327,812.2396,139.9216,801.5625,139.2226,801.7984,139.2226,801.6509,138.3893,801.7235,137.5559,801.8063,136.7226,801.3121,135.8893,801.5625,135.0559" style="stroke:#B5838D;stroke-width:1.0416666666666667;"/><polygon fill="none" points="805.7292,105.051,805.7292,105.27,816.7411,104.6195,827.753,105.2524,838.7649,105.4674,849.7768,104.3079,860.7887,104.9701,871.8006,104.6068,882.8125,105.051,882.7615,104.928,883.3927,105.2733,883.8991,105.3174,884.6538,105.9609,885.0858,105.8252,885.7588,106.2714,885.6953,106.2452,886.1414,106.9181,886.2194,107.4385,886.5129,108.0483,886.7248,108.6242,886.9792,109.2177,887.0412,109.2177,887.0622,117.7187,887.1825,126.2197,887.2122,134.7206,887.215,143.2216,886.9792,151.7226,887.0608,151.7564,886.8838,152.3734,886.7163,152.9944,886.0156,153.3945,886.2205,154.1698,885.7588,154.6689,885.7194,154.5738,885.2405,155.0842,884.5145,154.9982,883.9819,155.3791,883.5003,155.8831,882.8125,155.8893,882.8125,155.8385,871.8006,155.9989,860.7887,156.242,849.7768,156.3228,838.7649,155.8852,827.753,156.1884,816.7411,155.293,805.7292,155.8893,805.767,155.9805,805.2128,155.821,804.6097,155.5437,804.0429,155.3537,803.308,154.758,802.7829,154.6689,802.5737,154.5822,802.3395,153.997,802.2758,153.4825,801.9876,152.875,802.0252,152.4024,801.5625,151.7226,801.5018,151.7226,801.4434,143.2216,801.6418,134.7206,801.331,126.2197,801.3822,117.7187,801.5625,109.2177,801.7707,109.3039,801.9463,108.6863,802.2863,108.1368,802.1915,107.4072,802.6412,106.9031,802.7829,106.2714,802.8613,106.4608,803.3094,105.8758,803.9487,105.7525,804.5674,105.5796,805.2265,105.5042,805.7292,105.051" style="stroke:#333333;stroke-width:1.0416666666666667;"/><polygon fill="none" points="826.62,124.6706,825.0931,126.7569,823.2871,129.8127,820.7042,131.872,817.9899,132.9982,815.8258,133.0959,813.0442,131.6875,810.4197,130.7674,808.4276,128.8993,807.3826,126.7607,806.7629,125.0578,806.1558,122.8335,805.1704,120.9195,805.9277,119.0506,806.5911,117.0035,809.0808,115.3844,810.8324,113.2837,813.0004,112.5861,815.5778,111.9853,818.883,112.3423,820.6933,113.196,822.798,113.583,825.3572,116.205,826.2493,118.9729,826.6369,120.8616,826.1979,123.9738" style="stroke:#2E2E2E;stroke-width:1.0416666666666667;"/><path d="M818.0827,118.7514 C817.3991,118.4259 816.9596,118.3282 816.3086,118.3282 C814.388,118.3282 812.9069,119.8419 812.9069,121.8438 L812.9069,122.6739 C812.9069,124.5782 814.4694,125.9617 816.5853,125.9617 C817.4805,125.9617 818.3431,125.7338 818.8802,125.3269 C819.3197,125.034 819.5475,124.7084 819.5475,124.4155 C819.5475,124.0899 819.2546,123.797 818.929,123.797 C818.7663,123.797 818.6198,123.8621 818.4733,123.9923 C818.1315,124.3504 818.1315,124.3504 818.0013,124.4155 C817.6921,124.6108 817.1875,124.7084 816.6178,124.7084 C815.1204,124.7084 814.1602,123.8946 814.1602,122.6414 L814.1602,121.8438 C814.1602,120.5255 815.0879,119.5652 816.3574,119.5652 C816.7806,119.5652 817.2363,119.6791 817.5781,119.8744 C817.9362,120.0698 818.0664,120.2325 818.1315,120.5255 C818.1803,120.8347 818.1966,120.9161 818.2943,121.0138 C818.3919,121.1277 818.571,121.1928 818.7337,121.1928 C818.9453,121.1928 819.1243,121.0951 819.2546,120.9324 C819.3359,120.8185 819.3685,120.6882 819.3685,120.3627 L819.3685,119.3211 C819.3685,119.0118 819.3522,118.9142 819.2708,118.8002 C819.1569,118.6049 818.9616,118.491 818.7337,118.491 C818.5221,118.491 818.3757,118.5724 818.2129,118.8002 L818.0827,118.7514 Z " fill="#FFFFFF"/><text fill="#000000" font-family="Segoe Print" font-size="11.4583" lengthAdjust="spacing" textLength="43.75" x="834.8958" y="126.1036">Reward</text><path d="M802.6042,139.2226 L802.6042,139.5145 L813.0208,138.6471 L823.4375,139.491 L833.8542,139.7777 L844.2708,138.2318 L854.6875,139.1147 L865.1042,138.6302 L875.5208,138.69 L885.9375,139.2226 " fill="#6D6875" style="stroke:#333333;stroke-width:1.0416666666666667;"/><path d="M802.6042,147.5559 L802.6042,147.8478 L813.0208,146.9805 L823.4375,147.8244 L833.8542,148.111 L844.2708,146.5651 L854.6875,147.448 L865.1042,146.9636 L875.5208,147.0233 L885.9375,147.5559 " fill="#6D6875" style="stroke:#333333;stroke-width:1.0416666666666667;"/></g><!--link Agent to Environment--><g id="link_Agent_Environment"><path d="M381.275,130.5719 L381.275,130.8638 L391.915,129.9964 L402.5551,130.8403 L413.1951,131.127 L423.8352,129.581 L434.4752,130.4639 L445.1153,129.9795 L455.7553,130.0392 L466.3954,130.4772 L477.0354,130.5719 " fill="none" style="stroke:#333333;stroke-width:3.125;"/><polygon fill="#333333" points="483.2854,130.5719,483.3151,130.6386,481.352,129.6071,479.5627,128.9665,477.7168,128.1987,475.6848,127.0122,473.9104,126.4052,473.8913,126.3861,474.639,127.1338,475.4829,127.9777,476.3937,128.8885,477.074,129.5688,478.0771,130.5719,478.213,130.7078,477.089,131.2505,476.3619,132.19,475.6831,133.1779,474.7227,133.8841,473.9104,134.7385,473.92,134.7602,475.7809,133.8951,477.6856,133.1285,479.5691,132.3144,481.493,131.591,483.2854,130.5719" style="stroke:#333333;stroke-width:3.125;"/><text fill="#FFFFFF" filter="url(#b13jvof8ppcwc30)" font-family="Segoe Print" font-size="12.5" lengthAdjust="spacing" textLength="53.125" x="405.7292" y="119.258">changes</text></g><!--link Environment to Reward--><g id="link_Environment_Reward"><path d="M705.3802,130.5719 L705.3802,130.8638 L715.3546,129.9964 L725.3291,130.8403 L735.3035,131.127 L745.2779,129.581 L755.2523,130.4639 L765.2267,129.9795 L775.2012,130.0392 L785.1756,130.4772 L795.15,130.5719 " fill="none" style="stroke:#333333;stroke-width:3.125;"/><polygon fill="#333333" points="801.4,130.5719,801.4296,130.6386,799.4666,129.6071,797.6773,128.9665,795.8314,128.1987,793.7994,127.0122,792.025,126.4052,792.0059,126.3861,792.7536,127.1338,793.5975,127.9777,794.5083,128.8885,795.1886,129.5688,796.1917,130.5719,796.3276,130.7078,795.2036,131.2505,794.4764,132.19,793.7977,133.1779,792.8373,133.8841,792.025,134.7385,792.0346,134.7602,793.8955,133.8951,795.8002,133.1285,797.6837,132.3144,799.6076,131.591,801.4,130.5719" style="stroke:#333333;stroke-width:3.125;"/><text fill="#FFFFFF" filter="url(#b13jvof8ppcwc30)" font-family="Segoe Print" font-size="12.5" lengthAdjust="spacing" textLength="47.9167" x="729.4271" y="119.258">creates</text></g><!--link Reward to Agent--><g id="link_Reward_Agent"><path d="M801.176,105.9843 L801.2211,106.0705 L797.7052,104.0485 L794.4533,102.5322 L791.1155,100.8512 L787.4949,98.6287 L784.2657,97.1558 L784.2497,97.1236 L780.4016,95.1065 L776.634,93.252 L772.9224,91.5104 L769.0178,89.3796 L765.3836,87.794 L765.4919,88.0263 L761.1574,85.6165 L757.1391,83.8849 L753.1594,82.2361 L748.9552,80.1058 L744.8691,78.2288 L744.8818,78.2577 L742.7104,77.2641 L740.5971,76.4021 L738.4558,75.4766 L736.3679,74.6722 L734.1057,73.473 L734.227,73.7591 L732.0196,72.826 L729.734,71.7085 L727.5629,70.861 L725.3972,70.0262 L723.0615,68.7903 L722.9361,68.4808 L720.9228,68.1677 L718.4969,66.8356 L716.3846,66.2782 L713.9493,64.923 L711.7788,64.2217 L711.7674,64.1921 L709.6063,63.6596 L707.1792,62.4354 L704.9091,61.6194 L702.6521,60.8376 L700.3001,59.8086 L700.3658,59.9898 L697.9731,58.9636 L695.6926,58.2471 L693.2305,57.0296 L691.0392,56.5593 L688.6679,55.5922 L688.7493,55.8326 L686.3852,54.9915 L684.0616,54.2697 L681.5501,52.9934 L679.1763,52.1235 L676.9245,51.6138 L676.8385,51.3393 L674.5539,50.848 L672.1724,50.0473 L669.9315,49.6954 L667.4506,48.5773 L665.1123,47.9147 L665.0687,47.762 L662.7736,47.3406 L660.2922,46.2663 L657.9433,45.6564 L655.724,45.5006 L653.2738,44.536 L653.3237,44.7314 L650.9934,44.2621 L648.508,43.1849 L646.2169,42.8691 L643.8835,42.3873 L641.4514,41.5191 L641.404,41.3056 L639.089,40.953 L636.7585,40.5305 L634.4585,40.2453 L632.0399,39.4261 L629.6875,38.9052 L629.7242,39.1162 L625.5486,37.9394 L621.4438,37.1699 L617.4427,36.9953 L613.2507,35.7254 L609.2128,35.3391 L609.2401,35.5732 L605.0971,34.9525 L600.9448,34.2527 L596.8134,33.7316 L592.7302,33.6236 L588.5788,32.931 L588.57,32.7927 L584.4495,32.9395 L580.269,32.1458 L576.1568,32.4216 L572.0061,32.0952 L567.845,31.6065 L567.8468,31.7199 L563.6905,31.5654 L559.5404,31.817 L555.3848,31.7017 L551.2268,31.4331 L547.0707,31.2918 L547.0744,31.4159 L542.9178,31.3556 L538.7784,31.8716 L534.6195,31.7359 L530.4687,31.8682 L526.3152,31.9125 L526.295,31.6316 L522.1663,32.0218 L518.0617,32.7504 L513.9229,33.0002 L509.7718,33.0783 L505.6377,33.3946 L505.6213,33.2463 L501.5185,33.7477 L497.3868,33.9865 L493.3347,34.947 L489.2432,35.5504 L485.0976,35.6639 L485.133,35.905 L481.0756,36.5787 L476.9511,36.7943 L472.8975,37.4933 L468.7969,37.8723 L464.7543,38.6464 L464.7776,38.7758 L460.7571,39.4831 L456.7647,40.3466 L452.683,40.7146 L448.6734,41.4823 L444.6669,42.2678 L444.7095,42.4686 L440.767,43.362 L436.709,43.7102 L432.7852,44.6918 L428.8637,45.6844 L424.895,46.4541 L424.8287,46.1792 L421.0539,47.5485 L417.164,48.441 L413.2456,49.2149 L409.3925,50.2597 L405.4976,51.1311 L405.5852,51.4569 L401.6674,52.0099 L397.9501,53.3094 L394.1539,54.315 L390.3409,55.2578 L386.5343,56.2247 L386.5527,56.2873 L382.8551,57.3623 L379.0647,58.122 L375.3999,59.3084 L371.6979,60.3686 L368.0642,61.6608 L368.0732,61.689 L364.4931,62.8406 L360.92,64.0139 L357.2729,64.9551 L353.7208,66.1946 L350.1468,67.3652 L350.1288,67.3126 L346.7719,68.7977 L343.2883,69.9116 L339.691,70.6916 L336.2915,72.0522 L332.8413,73.2639 L332.7503,73.0126 L329.5598,74.5932 L326.2834,75.9363 L322.9465,77.1122 L319.4652,77.8892 L316.207,79.2826 " fill="none" style="stroke:#333333;stroke-width:3.125;"/><polygon fill="#333333" points="310.349,81.4611,310.3535,81.534,312.3879,81.4451,314.4489,81.7831,316.5012,81.9822,318.5251,81.7239,320.5884,82.0986,320.5771,82.0741,319.4552,81.4734,318.3898,80.9964,317.3639,80.6053,316.2023,79.918,315.2306,79.6457,315.4054,79.7257,315.5222,78.483,316.1494,77.474,316.8388,76.4935,317.1659,75.3471,317.6836,74.288,317.7002,74.3049,316.2089,75.7147,314.7931,77.2015,313.3409,78.6512,311.9581,80.1719,310.349,81.4611" style="stroke:#333333;stroke-width:3.125;"/><text fill="#FFFFFF" filter="url(#b13jvof8ppcwc30)" font-family="Segoe Print" font-size="12.5" lengthAdjust="spacing" textLength="64.5833" x="558.8542" y="42.1747">learn from</text></g><!--SRC=[PP1DReD038NtSmfNsO2QhYeeGbMaf2dgEfnW0YuW61lDc4PLrRjt-8cQqfKrzlVUy_XEQZG8haKfwa-bNDjGhwqsK7JQkOCksihoGEKBTsnX4n_Zv2bQOs-eIxJ_u4EKF2R7DPmnoGpeGTXeQOeRv7UwoR8uZYAb9XNiAoI1BmLmNtBE1gLkg0gSQC4Kyh64AUmBQPX6g4DjAR1uqRPCuJJLBH1UyXl55aec_pWpUvv2zNsDUwMFnZAPAHH6GuiE9GWNvTXnWdsWfyHhyZJ6_eHkw6HqM-pcVB- -Ryq_UTZzoKZX-Uplbyu7tXMrfWgTkaMyOh5PmnRzHaujKy_D4IjikWYyMpO_]--></g></svg>